<?xml version="1.0" encoding="UTF-8"?>
<!DOCTYPE svg PUBLIC "-//W3C//DTD SVG 1.1//EN" "http://www.w3.org/Graphics/SVG/1.1/DTD/svg11.dtd">
<svg xmlns="http://www.w3.org/2000/svg" version="1.1" width="256px" height="256px" style="shape-rendering:geometricPrecision; text-rendering:geometricPrecision; image-rendering:optimizeQuality; fill-rule:evenodd; clip-rule:evenodd" xmlns:xlink="http://www.w3.org/1999/xlink">
<g><path style="opacity:1" fill="#fbd369" d="M -0.5,-0.5 C 84.8333,-0.5 170.167,-0.5 255.5,-0.5C 255.5,84.8333 255.5,170.167 255.5,255.5C 170.167,255.5 84.8333,255.5 -0.5,255.5C -0.5,170.167 -0.5,84.8333 -0.5,-0.5 Z"/></g>
<g><path style="opacity:1" fill="#c0a356" d="M 62.5,49.5 C 62.5,102.833 62.5,156.167 62.5,209.5C 90.1667,209.5 117.833,209.5 145.5,209.5C 117.338,210.498 89.0049,210.831 60.5,210.5C 59.8376,156.49 60.5043,102.823 62.5,49.5 Z"/></g>
<g><path style="opacity:1" fill="#ba9d55" d="M 146.5,50.5 C 146.5,50.1667 146.5,49.8333 146.5,49.5C 152.228,49.0534 157.562,50.0534 162.5,52.5C 157.167,51.8333 151.833,51.1667 146.5,50.5 Z"/></g>
<g><path style="opacity:1" fill="#4a4435" d="M 62.5,49.5 C 90.5,49.5 118.5,49.5 146.5,49.5C 146.5,49.8333 146.5,50.1667 146.5,50.5C 146.167,50.5 145.833,50.5 145.5,50.5C 118.167,50.5 90.8333,50.5 63.5,50.5C 63.5,103.167 63.5,155.833 63.5,208.5C 94.5,208.5 125.5,208.5 156.5,208.5C 156.833,208.5 157.167,208.5 157.5,208.5C 157.5,208.833 157.5,209.167 157.5,209.5C 153.5,209.5 149.5,209.5 145.5,209.5C 117.833,209.5 90.1667,209.5 62.5,209.5C 62.5,156.167 62.5,102.833 62.5,49.5 Z"/></g>
<g><path style="opacity:1" fill="#24262a" d="M 145.5,50.5 C 118.672,51.4979 91.6718,51.8312 64.5,51.5C 64.5,103.5 64.5,155.5 64.5,207.5C 95.3379,207.169 126.005,207.502 156.5,208.5C 125.5,208.5 94.5,208.5 63.5,208.5C 63.5,155.833 63.5,103.167 63.5,50.5C 90.8333,50.5 118.167,50.5 145.5,50.5 Z"/></g>
<g><path style="opacity:1" fill="#2d2d2d" d="M 145.5,50.5 C 145.833,50.5 146.167,50.5 146.5,50.5C 151.833,51.1667 157.167,51.8333 162.5,52.5C 162.833,52.5 163.167,52.5 163.5,52.5C 164.635,54.2132 166.302,54.8799 168.5,54.5C 180.544,57.8799 189.211,65.2132 194.5,76.5C 194.721,79.0673 195.388,81.4006 196.5,83.5C 196.167,89.5 195.833,95.5 195.5,101.5C 192.396,110.94 186.396,117.94 177.5,122.5C 175.411,122.857 173.411,123.523 171.5,124.5C 172.668,126.217 174.335,126.884 176.5,126.5C 177.287,128.104 178.62,128.771 180.5,128.5C 198.494,137.971 205.661,152.971 202,173.5C 197.762,189.237 187.928,199.57 172.5,204.5C 170.973,204.427 169.973,205.094 169.5,206.5C 167.901,206.232 166.568,206.566 165.5,207.5C 162.615,207.194 159.948,207.527 157.5,208.5C 157.167,208.5 156.833,208.5 156.5,208.5C 126.005,207.502 95.3379,207.169 64.5,207.5C 64.5,155.5 64.5,103.5 64.5,51.5C 91.6718,51.8312 118.672,51.4979 145.5,50.5 Z"/></g>
<g><path style="opacity:1" fill="#7c6c42" d="M 163.5,52.5 C 165.403,52.7959 167.07,53.4625 168.5,54.5C 166.302,54.8799 164.635,54.2132 163.5,52.5 Z"/></g>
<g><path style="opacity:1" fill="#b29752" d="M 146.5,84.5 C 144.833,84.5 143.167,84.5 141.5,84.5C 129.345,83.5048 117.011,83.1714 104.5,83.5C 104.5,93.5 104.5,103.5 104.5,113.5C 103.506,103.347 103.172,93.0135 103.5,82.5C 116.837,82.3334 130.171,82.5001 143.5,83C 144.737,83.2321 145.737,83.7321 146.5,84.5 Z"/></g>
<g><path style="opacity:1" fill="#6e613f" d="M 194.5,76.5 C 195.117,76.6107 195.617,76.944 196,77.5C 196.495,79.4727 196.662,81.4727 196.5,83.5C 195.388,81.4006 194.721,79.0673 194.5,76.5 Z"/></g>
<g><path style="opacity:1" fill="#fad369" d="M 141.5,84.5 C 143.167,84.5 144.833,84.5 146.5,84.5C 150.201,85.8737 152.535,88.5404 153.5,92.5C 154.265,95.0961 154.599,97.7628 154.5,100.5C 153.341,105.317 150.674,108.984 146.5,111.5C 132.85,112.312 119.183,112.645 105.5,112.5C 105.5,103.167 105.5,93.8333 105.5,84.5C 117.5,84.5 129.5,84.5 141.5,84.5 Z"/></g>
<g><path style="opacity:1" fill="#e8c362" d="M 141.5,84.5 C 129.5,84.5 117.5,84.5 105.5,84.5C 105.5,93.8333 105.5,103.167 105.5,112.5C 119.183,112.645 132.85,112.312 146.5,111.5C 145.048,112.302 143.382,112.802 141.5,113C 129.171,113.5 116.838,113.667 104.5,113.5C 104.5,103.5 104.5,93.5 104.5,83.5C 117.011,83.1714 129.345,83.5048 141.5,84.5 Z"/></g>
<g><path style="opacity:1" fill="#514936" d="M 196.5,83.5 C 197.163,85.4726 197.496,87.6392 197.5,90C 197.569,94.0947 196.903,97.9281 195.5,101.5C 195.833,95.5 196.167,89.5 196.5,83.5 Z"/></g>
<g><path style="opacity:1" fill="#665a3b" d="M 153.5,92.5 C 155.026,93.4919 155.693,94.9919 155.5,97C 155.486,98.3847 155.152,99.5514 154.5,100.5C 154.599,97.7628 154.265,95.0961 153.5,92.5 Z"/></g>
<g><path style="opacity:1" fill="#c7a859" d="M 177.5,122.5 C 175.862,123.705 175.529,125.038 176.5,126.5C 174.335,126.884 172.668,126.217 171.5,124.5C 173.411,123.523 175.411,122.857 177.5,122.5 Z"/></g>
<g><path style="opacity:1" fill="#776741" d="M 176.5,126.5 C 178.153,126.66 179.486,127.326 180.5,128.5C 178.62,128.771 177.287,128.104 176.5,126.5 Z"/></g>
<g><path style="opacity:1" fill="#9d874c" d="M 146.5,145.5 C 144.833,145.5 143.167,145.5 141.5,145.5C 129.345,144.505 117.011,144.171 104.5,144.5C 104.5,155.5 104.5,166.5 104.5,177.5C 103.505,166.346 103.172,155.012 103.5,143.5C 117.171,143.333 130.837,143.5 144.5,144C 145.416,144.278 146.082,144.778 146.5,145.5 Z"/></g>
<g><path style="opacity:1" fill="#e7c262" d="M 141.5,145.5 C 129.5,145.5 117.5,145.5 105.5,145.5C 105.5,155.5 105.5,165.5 105.5,175.5C 120.529,175.768 135.529,175.434 150.5,174.5C 148.438,175.776 146.104,176.61 143.5,177C 130.504,177.5 117.504,177.667 104.5,177.5C 104.5,166.5 104.5,155.5 104.5,144.5C 117.011,144.171 129.345,144.505 141.5,145.5 Z"/></g>
<g><path style="opacity:1" fill="#fbd369" d="M 141.5,145.5 C 143.167,145.5 144.833,145.5 146.5,145.5C 151.319,146.662 154.986,149.329 157.5,153.5C 158.833,157.833 158.833,162.167 157.5,166.5C 155.935,169.796 153.601,172.463 150.5,174.5C 135.529,175.434 120.529,175.768 105.5,175.5C 105.5,165.5 105.5,155.5 105.5,145.5C 117.5,145.5 129.5,145.5 141.5,145.5 Z"/></g>
<g><path style="opacity:1" fill="#b59b54" d="M 157.5,153.5 C 158.117,153.611 158.617,153.944 159,154.5C 159.667,158.167 159.667,161.833 159,165.5C 158.617,166.056 158.117,166.389 157.5,166.5C 158.833,162.167 158.833,157.833 157.5,153.5 Z"/></g>
<g><path style="opacity:1" fill="#98834a" d="M 172.5,204.5 C 172.027,205.906 171.027,206.573 169.5,206.5C 169.973,205.094 170.973,204.427 172.5,204.5 Z"/></g>
<g><path style="opacity:1" fill="#b99d55" d="M 165.5,207.5 C 163.095,208.768 160.428,209.435 157.5,209.5C 157.5,209.167 157.5,208.833 157.5,208.5C 159.948,207.527 162.615,207.194 165.5,207.5 Z"/></g>
</svg>
