<?xml version="1.0" encoding="UTF-8"?>
<svg version="1.1" xmlns="http://www.w3.org/2000/svg" width="48" height="42">
<path d="M0 0 C5.2392433 2.35973855 9.06474902 6.75809998 12.34375 11.38671875 C14.39003787 17.52558235 14.44946965 24.8868864 11.71875 30.82421875 C8.82255723 35.76417877 4.61630313 39.15136759 -0.65625 41.38671875 C-3.91657844 41.82142921 -7.18223812 41.75695224 -10.46875 41.76171875 C-11.34595703 41.78621094 -12.22316406 41.81070313 -13.12695312 41.8359375 C-20.15003456 41.86745469 -24.3652967 40.43511174 -29.6171875 35.5703125 C-30.08382813 34.99410156 -30.55046875 34.41789062 -31.03125 33.82421875 C-31.75441406 32.95603516 -31.75441406 32.95603516 -32.4921875 32.0703125 C-36.13267106 26.80504936 -35.3414872 19.44843241 -34.65625 13.38671875 C-32.07342528 6.81896446 -27.93427975 3.28427094 -21.65625 0.38671875 C-16.08644052 -2.39818599 -6.0177169 -1.38938464 0 0 Z " fill="#F3F5F5" transform="translate(34.65625,0.61328125)"/>
<path d="M0 0 C5.2392433 2.35973855 9.06474902 6.75809998 12.34375 11.38671875 C14.39003787 17.52558235 14.44946965 24.8868864 11.71875 30.82421875 C8.82255723 35.76417877 4.61630313 39.15136759 -0.65625 41.38671875 C-3.91657844 41.82142921 -7.18223812 41.75695224 -10.46875 41.76171875 C-11.34595703 41.78621094 -12.22316406 41.81070313 -13.12695312 41.8359375 C-20.15003456 41.86745469 -24.3652967 40.43511174 -29.6171875 35.5703125 C-30.08382813 34.99410156 -30.55046875 34.41789062 -31.03125 33.82421875 C-31.75441406 32.95603516 -31.75441406 32.95603516 -32.4921875 32.0703125 C-36.13267106 26.80504936 -35.3414872 19.44843241 -34.65625 13.38671875 C-32.07342528 6.81896446 -27.93427975 3.28427094 -21.65625 0.38671875 C-16.08644052 -2.39818599 -6.0177169 -1.38938464 0 0 Z M-28.65625 8.38671875 C-32.17087564 13.10146046 -33.39288123 17.4936689 -32.65625 23.38671875 C-31.23065962 29.91643183 -28.15515751 33.67347798 -22.65625 37.38671875 C-18.33643324 39.90445626 -14.55536757 40.02328172 -9.65625 39.38671875 C-3.43826402 37.5324265 0.28587126 34.04313823 3.34375 28.38671875 C5.2662912 22.61909515 5.36461212 16.50697084 2.71875 11.01171875 C-2.75014898 4.9087488 -2.75014898 4.9087488 -10.16015625 2.078125 C-17.91680399 1.75121647 -23.04942483 2.80360109 -28.65625 8.38671875 Z " fill="#40414B" transform="translate(34.65625,0.61328125)"/>
<path d="M0 0 C3.3114019 0.57093136 4.75054423 1.54604826 7 4 C7.66 4.33 8.32 4.66 9 5 C9.44935813 12.48930214 9.67733228 18.81616499 5 25 C1.69181624 28.45855575 -2.2284685 31.70126051 -7.10644531 32.22705078 C-8.20617676 32.21134033 -8.20617676 32.21134033 -9.328125 32.1953125 C-10.12734375 32.18886719 -10.9265625 32.18242188 -11.75 32.17578125 C-12.575 32.15902344 -13.4 32.14226563 -14.25 32.125 C-15.09046875 32.11597656 -15.9309375 32.10695312 -16.796875 32.09765625 C-18.86470604 32.07415817 -20.93238995 32.03828908 -23 32 C-23 31.67 -23 31.34 -23 31 C-20.03 31 -17.06 31 -14 31 C-14 30.34 -14 29.68 -14 29 C-13.46890625 28.78085937 -12.9378125 28.56171875 -12.390625 28.3359375 C-7.33381437 26.06590937 -4.68451568 24.04688949 -2 19 C-0.64158588 14.92475764 -0.97793617 11.17534425 -1.0625 6.91015625 C-1.00838229 4.39030043 -0.73793563 2.39252569 0 0 Z " fill="#363741" transform="translate(39,10)"/>
<path d="M0 0 C1.32 0 2.64 0 4 0 C4 2.31 4 4.62 4 7 C4.99 7 5.98 7 7 7 C6.938125 6.21625 6.87625 5.4325 6.8125 4.625 C6.874375 3.75875 6.93625 2.8925 7 2 C10 0 10 0 13.1875 0.375 C14.115625 0.58125 15.04375 0.7875 16 1 C16.25 7.625 16.25 7.625 14 11 C13.92094936 13.33199388 13.91201231 15.66832622 14 18 C14.66 18 15.32 18 16 18 C16 18.66 16 19.32 16 20 C12.33333333 20 8.66666667 20 5 20 C3.989375 20.020625 2.97875 20.04125 1.9375 20.0625 C-1 20 -1 20 -2 19 C-2.04241723 16.66705225 -2.04092937 14.33297433 -2 12 C-2 11.34 -2 10.68 -2 10 C-2 9.01 -2 8.02 -2 7 C-1.34 7 -0.68 7 0 7 C0 6.01 0 5.02 0 4 C-0.66 4 -1.32 4 -2 4 C-1.34 2.68 -0.68 1.36 0 0 Z " fill="#D1D2D5" transform="translate(14,11)"/>
<path d="M0 0 C0.66 0.99 1.32 1.98 2 3 C1.65066406 3.47050781 1.30132812 3.94101563 0.94140625 4.42578125 C0.48636719 5.04839844 0.03132812 5.67101562 -0.4375 6.3125 C-0.88996094 6.92738281 -1.34242188 7.54226562 -1.80859375 8.17578125 C-4.33524068 12.04445048 -4.29517646 15.498559 -4 20 C-2.60845976 26.21476021 -0.19523858 29.39514057 5 33 C7.95421364 34.7055254 10.35871698 35.32576915 13.75 35.625 C14.54921875 35.69976562 15.3484375 35.77453125 16.171875 35.8515625 C16.77515625 35.90054688 17.3784375 35.94953125 18 36 C18 36.33 18 36.66 18 37 C6.64265412 38.88946803 6.64265412 38.88946803 1.56640625 35.37890625 C-3.17546337 31.20464197 -6.65151766 27.43188933 -7.30859375 20.9609375 C-7.6128226 12.49784417 -6.71239054 7.37698999 -1 1 C-0.67 0.67 -0.34 0.34 0 0 Z " fill="#3F3F4B" transform="translate(7,4)"/>
<path d="M0 0 C3.3114019 0.57093136 4.75054423 1.54604826 7 4 C7.66 4.33 8.32 4.66 9 5 C9 8.96 9 12.92 9 17 C8.34 17.33 7.68 17.66 7 18 C6.67 17.34 6.34 16.68 6 16 C4.68 16 3.36 16 2 16 C-0.44341953 13.55658047 -0.38216772 12.49867143 -0.6875 9.125 C-0.77386719 8.26132812 -0.86023437 7.39765625 -0.94921875 6.5078125 C-0.99777213 4.11002241 -0.70483368 2.27878559 0 0 Z " fill="#707179" transform="translate(39,10)"/>
<path d="M0 0 C1.32 0.33 2.64 0.66 4 1 C4 1.99 4 2.98 4 4 C0.63377458 6.91739537 -1.71203397 8.12878849 -6.1328125 8.09765625 C-6.93847656 8.09443359 -7.74414062 8.09121094 -8.57421875 8.08789062 C-9.41597656 8.07951172 -10.25773437 8.07113281 -11.125 8.0625 C-11.97449219 8.05798828 -12.82398438 8.05347656 -13.69921875 8.04882812 C-15.79950909 8.03702874 -17.8997633 8.01909306 -20 8 C-20 7.67 -20 7.34 -20 7 C-17.03 7 -14.06 7 -11 7 C-11 6.34 -11 5.68 -11 5 C-4.5 2 -4.5 2 0 2 C0 1.34 0 0.68 0 0 Z " fill="#5B5C66" transform="translate(36,34)"/>
<path d="M0 0 C2.5625 0.1875 2.5625 0.1875 4.5625 2.1875 C4.75 5.25 4.75 5.25 4.5625 8.1875 C3.5625 9.1875 3.5625 9.1875 0.5625 9.3125 C-2.4375 9.1875 -2.4375 9.1875 -3.4375 8.1875 C-3.5625 4.6875 -3.5625 4.6875 -3.4375 1.1875 C-2.4375 0.1875 -2.4375 0.1875 0 0 Z " fill="#343540" transform="translate(15.4375,21.8125)"/>
<path d="M0 0 C3.32064358 -0.39032126 4.59924772 -0.31605721 7.2734375 1.79296875 C7.96695313 2.58316406 8.66046875 3.37335937 9.375 4.1875 C10.08398438 4.96480469 10.79296875 5.74210938 11.5234375 6.54296875 C13 9 13 9 12.7265625 11.80078125 C12.36691406 12.88939453 12.36691406 12.88939453 12 14 C10.66666667 12 9.33333333 10 8 8 C7.01 7.67 6.02 7.34 5 7 C4.67 8.32 4.34 9.64 4 11 C2 8 2 8 2 5 C2.66 4.67 3.32 4.34 4 4 C2.68 2.68 1.36 1.36 0 0 Z " fill="#3D3E48" transform="translate(34,3)"/>
<path d="M0 0 C1.875 0.3125 1.875 0.3125 4 1 C6.29013653 4.4352048 6.17842973 5.985331 6 10 C4.68 10 3.36 10 2 10 C1.34 11.32 0.68 12.64 0 14 C-0.19627391 12.41773035 -0.38165538 10.83410729 -0.5625 9.25 C-0.66691406 8.36828125 -0.77132812 7.4865625 -0.87890625 6.578125 C-0.99456676 4.11567549 -0.73638695 2.33461936 0 0 Z " fill="#9D9EA5" transform="translate(39,10)"/>
<path d="M0 0 C1.32 0 2.64 0 4 0 C4 2.31 4 4.62 4 7 C4.66 7 5.32 7 6 7 C6 7.66 6 8.32 6 9 C3.36 9 0.72 9 -2 9 C-2 8.34 -2 7.68 -2 7 C-1.34 7 -0.68 7 0 7 C0 6.01 0 5.02 0 4 C-0.66 4 -1.32 4 -2 4 C-1.34 2.68 -0.68 1.36 0 0 Z " fill="#60616A" transform="translate(14,11)"/>
<path d="M0 0 C2.00720923 0.28674418 4.0085944 0.61866701 6 1 C6.04241723 3.33294775 6.04092937 5.66702567 6 8 C5 9 5 9 2 9.125 C-1 9 -1 9 -2 8 C-2.04063832 6.33382885 -2.042721 4.66611905 -2 3 C-1.67 4.32 -1.34 5.64 -1 7 C0.32 7 1.64 7 3 7 C3 5.35 3 3.7 3 2 C1.68 1.67 0.36 1.34 -1 1 C-0.67 0.67 -0.34 0.34 0 0 Z " fill="#383940" transform="translate(24,11)"/>
<path d="M0 0 C1.32 0 2.64 0 4 0 C4 2.31 4 4.62 4 7 C4.66 7 5.32 7 6 7 C6 7.66 6 8.32 6 9 C3.36 9 0.72 9 -2 9 C-2 8.34 -2 7.68 -2 7 C-1.01 7 -0.02 7 1 7 C1 5.68 1 4.36 1 3 C0.01 2.67 -0.98 2.34 -2 2 C-1.34 1.34 -0.68 0.68 0 0 Z " fill="#383941" transform="translate(24,22)"/>
<path d="M0 0 C0.33 0.66 0.66 1.32 1 2 C2.65 2 4.3 2 6 2 C5.67 3.65 5.34 5.3 5 7 C2.36 7 -0.28 7 -3 7 C-2.01 4.69 -1.02 2.38 0 0 Z " fill="#8E8F95" transform="translate(38,26)"/>
<path d="M0 0 C1.32 0.33 2.64 0.66 4 1 C3.67 1.66 3.34 2.32 3 3 C3.99 4.32 4.98 5.64 6 7 C5.01 7 4.02 7 3 7 C2.67 7.66 2.34 8.32 2 9 C0 7.1875 0 7.1875 -2 5 C-2 4.01 -2 3.02 -2 2 C-1.34 2 -0.68 2 0 2 C0 1.34 0 0.68 0 0 Z " fill="#73747C" transform="translate(33,1)"/>
<path d="M0 0 C5.75 1.875 5.75 1.875 8 3 C9.53668865 3.22467831 11.07968054 3.40796805 12.625 3.5625 C13.44226562 3.64628906 14.25953125 3.73007812 15.1015625 3.81640625 C15.72804688 3.87699219 16.35453125 3.93757813 17 4 C17 4.33 17 4.66 17 5 C5.47835991 6.70159453 5.47835991 6.70159453 0 3 C0 2.01 0 1.02 0 0 Z " fill="#373842" transform="translate(8,36)"/>
<path d="M0 0 C1.2065625 0.0309375 1.2065625 0.0309375 2.4375 0.0625 C2.4375 2.0425 2.4375 4.0225 2.4375 6.0625 C-0.5625 7.0625 -0.5625 7.0625 -3.5625 6.0625 C-3.605221 4.39638095 -3.60313832 2.72867115 -3.5625 1.0625 C-2.5625 0.0625 -2.5625 0.0625 0 0 Z " fill="#74757A" transform="translate(17.5625,23.9375)"/>
<path d="M0 0 C0.66 0.99 1.32 1.98 2 3 C0.02 5.97 -1.96 8.94 -4 12 C-4.66 10.68 -5.32 9.36 -6 8 C-4.02 5.36 -2.04 2.72 0 0 Z " fill="#393A41" transform="translate(7,4)"/>
<path d="M0 0 C0.33 0.66 0.66 1.32 1 2 C-1.12780579 4.34058637 -3.11562221 5.70700306 -6 7 C-6 5.68 -6 4.36 -6 3 C-4.02 2.01 -2.04 1.02 0 0 Z " fill="#464655" transform="translate(15,0)"/>
<path d="M0 0 C1.65 0 3.3 0 5 0 C5 1.32 5 2.64 5 4 C4.01 4 3.02 4 2 4 C1.67 4.66 1.34 5.32 1 6 C0.67 4.02 0.34 2.04 0 0 Z " fill="#CFD0D2" transform="translate(20,25)"/>
<path d="M0 0 C0.66 0 1.32 0 2 0 C2 0.99 2 1.98 2 3 C2.99 3 3.98 3 5 3 C5 3.66 5 4.32 5 5 C2.36 5 -0.28 5 -3 5 C-3 4.34 -3 3.68 -3 3 C-2.01 3 -1.02 3 0 3 C0 2.01 0 1.02 0 0 Z " fill="#292936" transform="translate(15,15)"/>
<path d="M0 0 C2.475 0.495 2.475 0.495 5 1 C5 2.65 5 4.3 5 6 C3.68 6 2.36 6 1 6 C0.67 4.02 0.34 2.04 0 0 Z " fill="#898A90" transform="translate(22,12)"/>
</svg>
