<?xml version="1.0" encoding="UTF-8"?>
<!DOCTYPE svg PUBLIC "-//W3C//DTD SVG 1.1//EN" "http://www.w3.org/Graphics/SVG/1.1/DTD/svg11.dtd">
<svg xmlns="http://www.w3.org/2000/svg" version="1.1" width="262px" height="261px" style="shape-rendering:geometricPrecision; text-rendering:geometricPrecision; image-rendering:optimizeQuality; fill-rule:evenodd; clip-rule:evenodd" xmlns:xlink="http://www.w3.org/1999/xlink">
<g><path style="opacity:0.489" fill="#eeea86" d="M 44.5,-0.5 C 72.5,-0.5 100.5,-0.5 128.5,-0.5C 128.5,-0.166667 128.5,0.166667 128.5,0.5C 125.833,0.5 123.167,0.5 120.5,0.5C 93.4815,0.220258 66.4815,0.553591 39.5,1.5C 41.1667,0.833333 42.8333,0.166667 44.5,-0.5 Z"/></g>
<g><path style="opacity:0.678" fill="#eed643" d="M 128.5,0.5 C 128.5,0.166667 128.5,-0.166667 128.5,-0.5C 157.833,-0.5 187.167,-0.5 216.5,-0.5C 218.167,0.166667 219.833,0.833333 221.5,1.5C 216.187,0.902177 210.854,0.568844 205.5,0.5C 181.5,0.5 157.5,0.5 133.5,0.5C 131.833,0.5 130.167,0.5 128.5,0.5 Z"/></g>
<g><path style="opacity:1" fill="#fedd00" d="M 133.5,0.5 C 157.5,0.5 181.5,0.5 205.5,0.5C 200.659,7.97607 196.326,15.6427 192.5,23.5C 182.24,40.3539 172.24,57.3539 162.5,74.5C 162.274,71.7508 162.607,69.0841 163.5,66.5C 162.675,65.6143 161.675,65.281 160.5,65.5C 160.5,66.8333 160.5,68.1667 160.5,69.5C 158.194,69.9926 155.861,70.3259 153.5,70.5C 153.5,69.5 153.5,68.5 153.5,67.5C 151.5,67.5 149.5,67.5 147.5,67.5C 147.5,65.5 147.5,63.5 147.5,61.5C 144.5,61.5 141.5,61.5 138.5,61.5C 138.167,41.5 137.833,41.5 137.5,61.5C 136.5,61.5 135.5,61.5 134.5,61.5C 134.666,55.8236 134.499,50.1569 134,44.5C 133.667,51.5 133.333,58.5 133,65.5C 132.179,43.7605 132.345,22.0938 133.5,0.5 Z"/></g>
<g><path style="opacity:1" fill="#dddf19" d="M 120.5,0.5 C 99.6628,1.16666 78.6628,1.83333 57.5,2.5C 67.3184,19.9762 77.3184,37.3095 87.5,54.5C 89.2369,57.5212 91.0702,60.5212 93,63.5C 93.49,64.7932 93.6567,66.1266 93.5,67.5C 94.5,67.5 95.5,67.5 96.5,67.5C 96.4621,70.1813 97.1287,72.6813 98.5,75C 101.234,78.5091 104.068,82.0091 107,85.5C 108.375,91.3048 110.708,96.6381 114,101.5C 119.122,108.941 123.789,116.607 128,124.5C 128.671,123.748 129.504,123.414 130.5,123.5C 130.64,125.124 129.973,126.29 128.5,127C 129.381,127.708 130.047,128.542 130.5,129.5C 129.833,129.5 129.167,129.5 128.5,129.5C 92.638,107.734 56.3047,86.734 19.5,66.5C 13.312,62.573 6.97865,58.9063 0.5,55.5C 0.5,52.5 0.5,49.5 0.5,46.5C 1.11742,46.3893 1.61742,46.056 2,45.5C 1.75277,39.5136 3.58611,34.347 7.5,30C 8.07665,27.863 8.40999,25.6963 8.5,23.5C 16.0642,12.2698 26.3975,4.93645 39.5,1.5C 66.4815,0.553591 93.4815,0.220258 120.5,0.5 Z"/></g>
<g><path style="opacity:1" fill="#f6ec68" d="M 120.5,0.5 C 123.167,0.5 125.833,0.5 128.5,0.5C 128.5,0.833333 128.5,1.16667 128.5,1.5C 128.665,72.1431 127.832,72.1431 126,1.5C 125.666,14.5181 124.999,27.5181 124,40.5C 123.667,27.8333 123.333,15.1667 123,2.5C 122.084,24.1588 121.417,45.8254 121,67.5C 120.5,58.8397 120.334,50.1731 120.5,41.5C 111.068,40.8778 101.901,41.5445 93,43.5C 92.2904,42.0267 91.1238,41.3601 89.5,41.5C 90.7628,44.8819 91.7628,48.3819 92.5,52C 92,52.5 91.5,53 91,53.5C 90.2904,52.0267 89.1238,51.3601 87.5,51.5C 87.5,52.5 87.5,53.5 87.5,54.5C 77.3184,37.3095 67.3184,19.9762 57.5,2.5C 78.6628,1.83333 99.6628,1.16666 120.5,0.5 Z"/></g>
<g><path style="opacity:1" fill="#f4b304" d="M 205.5,0.5 C 210.854,0.568844 216.187,0.902177 221.5,1.5C 244.033,8.22808 257.033,23.2281 260.5,46.5C 261.231,50.6034 260.231,54.1034 257.5,57C 245.936,63.5355 234.27,70.0355 222.5,76.5C 222.675,73.6711 221.342,72.0045 218.5,71.5C 219.737,70.7193 220.737,69.7193 221.5,68.5C 220.833,68.1667 220.167,67.8333 219.5,67.5C 218.052,69.3618 216.385,70.0284 214.5,69.5C 211.393,67.8086 208.059,66.6419 204.5,66C 203.95,64.1554 202.95,62.6554 201.5,61.5C 200.526,59.2573 200.192,56.924 200.5,54.5C 195.959,55.1313 191.959,54.1313 188.5,51.5C 187.833,52.5 187.167,53.5 186.5,54.5C 186.524,52.7547 186.19,50.9214 185.5,49C 187.111,46.7903 187.778,44.2903 187.5,41.5C 191.833,41.5 196.167,41.5 200.5,41.5C 200.64,39.8762 199.973,38.7096 198.5,38C 199.939,37.0094 200.939,35.676 201.5,34C 200.707,30.5894 200.207,27.0894 200,23.5C 198.818,25.3436 197.651,27.1769 196.5,29C 199.683,36.6317 197.016,39.2984 188.5,37C 190.004,35.5093 190.837,33.676 191,31.5C 191.333,31.8333 191.667,32.1667 192,32.5C 191.198,29.4887 191.365,26.4887 192.5,23.5C 196.326,15.6427 200.659,7.97607 205.5,0.5 Z"/></g>
<g><path style="opacity:1" fill="#dadd52" d="M 8.5,23.5 C 8.40999,25.6963 8.07665,27.863 7.5,30C 3.58611,34.347 1.75277,39.5136 2,45.5C 1.61742,46.056 1.11742,46.3893 0.5,46.5C 0.5,45.8333 0.5,45.1667 0.5,44.5C 1.24295,36.6951 3.90962,29.6951 8.5,23.5 Z"/></g>
<g><path style="opacity:1" fill="#fce105" d="M 128.5,1.5 C 128.5,1.16667 128.5,0.833333 128.5,0.5C 130.167,0.5 131.833,0.5 133.5,0.5C 132.345,22.0938 132.179,43.7605 133,65.5C 133.333,58.5 133.667,51.5 134,44.5C 134.499,50.1569 134.666,55.8236 134.5,61.5C 135.5,61.5 136.5,61.5 137.5,61.5C 137.833,41.5 138.167,41.5 138.5,61.5C 141.5,61.5 144.5,61.5 147.5,61.5C 147.5,63.5 147.5,65.5 147.5,67.5C 149.5,67.5 151.5,67.5 153.5,67.5C 153.5,68.5 153.5,69.5 153.5,70.5C 155.861,70.3259 158.194,69.9926 160.5,69.5C 160.5,68.1667 160.5,66.8333 160.5,65.5C 161.675,65.281 162.675,65.6143 163.5,66.5C 162.607,69.0841 162.274,71.7508 162.5,74.5C 153.27,90.6223 143.77,106.622 134,122.5C 133.187,124.436 132.687,126.436 132.5,128.5C 132.5,128.833 132.5,129.167 132.5,129.5C 131.833,129.5 131.167,129.5 130.5,129.5C 130.047,128.542 129.381,127.708 128.5,127C 129.973,126.29 130.64,125.124 130.5,123.5C 131.161,82.4863 130.494,41.8196 128.5,1.5 Z"/></g>
<g><path style="opacity:1" fill="#f6b902" d="M 192.5,23.5 C 191.365,26.4887 191.198,29.4887 192,32.5C 191.667,32.1667 191.333,31.8333 191,31.5C 190.837,33.676 190.004,35.5093 188.5,37C 197.016,39.2984 199.683,36.6317 196.5,29C 197.651,27.1769 198.818,25.3436 200,23.5C 200.207,27.0894 200.707,30.5894 201.5,34C 200.939,35.676 199.939,37.0094 198.5,38C 199.973,38.7096 200.64,39.8762 200.5,41.5C 196.167,41.5 191.833,41.5 187.5,41.5C 187.778,44.2903 187.111,46.7903 185.5,49C 186.19,50.9214 186.524,52.7547 186.5,54.5C 187.167,53.5 187.833,52.5 188.5,51.5C 191.959,54.1313 195.959,55.1313 200.5,54.5C 200.192,56.924 200.526,59.2573 201.5,61.5C 202.95,62.6554 203.95,64.1554 204.5,66C 208.059,66.6419 211.393,67.8086 214.5,69.5C 216.385,70.0284 218.052,69.3618 219.5,67.5C 220.167,67.8333 220.833,68.1667 221.5,68.5C 220.737,69.7193 219.737,70.7193 218.5,71.5C 221.342,72.0045 222.675,73.6711 222.5,76.5C 192.463,93.8494 162.463,111.183 132.5,128.5C 132.687,126.436 133.187,124.436 134,122.5C 143.77,106.622 153.27,90.6223 162.5,74.5C 172.24,57.3539 182.24,40.3539 192.5,23.5 Z"/></g>
<g><path style="opacity:1" fill="#f8ee6d" d="M 128.5,1.5 C 130.494,41.8196 131.161,82.4863 130.5,123.5C 129.504,123.414 128.671,123.748 128,124.5C 123.789,116.607 119.122,108.941 114,101.5C 110.708,96.6381 108.375,91.3048 107,85.5C 104.068,82.0091 101.234,78.5091 98.5,75C 97.1287,72.6813 96.4621,70.1813 96.5,67.5C 95.5,67.5 94.5,67.5 93.5,67.5C 93.6567,66.1266 93.49,64.7932 93,63.5C 91.0702,60.5212 89.2369,57.5212 87.5,54.5C 87.5,53.5 87.5,52.5 87.5,51.5C 89.1238,51.3601 90.2904,52.0267 91,53.5C 91.5,53 92,52.5 92.5,52C 91.7628,48.3819 90.7628,44.8819 89.5,41.5C 91.1238,41.3601 92.2904,42.0267 93,43.5C 101.901,41.5445 111.068,40.8778 120.5,41.5C 120.334,50.1731 120.5,58.8397 121,67.5C 121.417,45.8254 122.084,24.1588 123,2.5C 123.333,15.1667 123.667,27.8333 124,40.5C 124.999,27.5181 125.666,14.5181 126,1.5C 127.832,72.1431 128.665,72.1431 128.5,1.5 Z"/></g>
<g><path style="opacity:1" fill="#80be24" d="M 0.5,55.5 C 6.97865,58.9063 13.312,62.573 19.5,66.5C 56.3047,86.734 92.638,107.734 128.5,129.5C 85.8333,129.5 43.1667,129.5 0.5,129.5C 0.5,104.833 0.5,80.1667 0.5,55.5 Z"/></g>
<g><path style="opacity:1" fill="#eb7228" d="M 260.5,46.5 C 260.833,46.5 261.167,46.5 261.5,46.5C 261.5,74.1667 261.5,101.833 261.5,129.5C 261.167,129.5 260.833,129.5 260.5,129.5C 217.833,129.5 175.167,129.5 132.5,129.5C 132.5,129.167 132.5,128.833 132.5,128.5C 162.463,111.183 192.463,93.8494 222.5,76.5C 234.27,70.0355 245.936,63.5355 257.5,57C 260.231,54.1034 261.231,50.6034 260.5,46.5 Z"/></g>
<g><path style="opacity:1" fill="#2ea652" d="M 0.5,129.5 C 43.1667,129.5 85.8333,129.5 128.5,129.5C 129.167,129.5 129.833,129.5 130.5,129.5C 130.5,129.833 130.5,130.167 130.5,130.5C 128.409,131.865 126.076,132.532 123.5,132.5C 118.695,131.513 113.695,131.179 108.5,131.5C 108.167,135.5 107.833,135.5 107.5,131.5C 72.1667,131.5 36.8333,131.5 1.5,131.5C 1.73731,132.791 1.40397,133.791 0.5,134.5C 0.5,132.833 0.5,131.167 0.5,129.5 Z"/></g>
<g><path style="opacity:1" fill="#da2f49" d="M 130.5,130.5 C 130.5,130.167 130.5,129.833 130.5,129.5C 131.167,129.5 131.833,129.5 132.5,129.5C 175.167,129.5 217.833,129.5 260.5,129.5C 260.5,129.833 260.5,130.167 260.5,130.5C 222.849,131.456 185.182,131.789 147.5,131.5C 142.025,130.511 136.358,130.178 130.5,130.5 Z"/></g>
<g><path style="opacity:1" fill="#d10458" d="M 260.5,130.5 C 260.831,155.339 260.498,180.006 259.5,204.5C 258.529,180.199 258.196,155.866 258.5,131.5C 257.5,131.5 256.5,131.5 255.5,131.5C 255.719,132.675 255.386,133.675 254.5,134.5C 238.819,133.182 222.985,132.515 207,132.5C 190.81,132.514 174.643,132.848 158.5,133.5C 154.669,132.973 151.002,132.306 147.5,131.5C 185.182,131.789 222.849,131.456 260.5,130.5 Z"/></g>
<g><path style="opacity:1" fill="#01a066" d="M 123.5,132.5 C 117.224,136.981 110.89,141.481 104.5,146C 100.92,146.725 97.9198,148.391 95.5,151C 91.5579,150.937 88.5579,152.603 86.5,156C 85.0993,156.41 83.766,156.91 82.5,157.5C 80.5,157.5 78.5,157.5 76.5,157.5C 76.5,158.833 76.5,160.167 76.5,161.5C 73.0516,162.39 70.0516,164.057 67.5,166.5C 67.1583,167.338 66.4916,167.672 65.5,167.5C 61.4584,168.851 58.1251,171.185 55.5,174.5C 52.2326,175.656 48.8993,176.823 45.5,178C 44.8333,179 44.1667,180 43.5,181C 36.3169,184.726 29.3169,188.56 22.5,192.5C 19.5096,193.759 16.5096,195.092 13.5,196.5C 9.6509,196.019 7.6509,197.686 7.5,201.5C 6.83333,201.5 6.16667,201.5 5.5,201.5C 3.95568,201.703 2.62235,202.37 1.5,203.5C 0.50028,180.51 0.166947,157.51 0.5,134.5C 1.40397,133.791 1.73731,132.791 1.5,131.5C 36.8333,131.5 72.1667,131.5 107.5,131.5C 107.833,135.5 108.167,135.5 108.5,131.5C 113.695,131.179 118.695,131.513 123.5,132.5 Z"/></g>
<g><path style="opacity:0.195" fill="#90b89c" d="M -0.5,44.5 C -0.166667,44.5 0.166667,44.5 0.5,44.5C 0.5,45.1667 0.5,45.8333 0.5,46.5C 0.5,49.5 0.5,52.5 0.5,55.5C 0.5,80.1667 0.5,104.833 0.5,129.5C 0.5,131.167 0.5,132.833 0.5,134.5C 0.166947,157.51 0.50028,180.51 1.5,203.5C 2.62235,202.37 3.95568,201.703 5.5,201.5C 4.52134,203.145 3.188,204.479 1.5,205.5C 0.519979,208.086 0.186646,210.753 0.5,213.5C 0.166667,213.5 -0.166667,213.5 -0.5,213.5C -0.5,157.167 -0.5,100.833 -0.5,44.5 Z"/></g>
<g><path style="opacity:1" fill="#d40863" d="M 130.5,131.5 C 130.5,131.167 130.5,130.833 130.5,130.5C 136.358,130.178 142.025,130.511 147.5,131.5C 151.002,132.306 154.669,132.973 158.5,133.5C 174.643,132.848 190.81,132.514 207,132.5C 222.985,132.515 238.819,133.182 254.5,134.5C 255.386,133.675 255.719,132.675 255.5,131.5C 256.5,131.5 257.5,131.5 258.5,131.5C 258.196,155.866 258.529,180.199 259.5,204.5C 259.631,205.239 259.464,205.906 259,206.5C 258.507,203.385 256.674,201.719 253.5,201.5C 253.586,200.504 253.252,199.671 252.5,199C 240.815,193.684 229.482,188.017 218.5,182C 212.275,176.367 204.942,172.7 196.5,171C 194.5,170.333 193.167,169 192.5,167C 186.143,166.173 181.143,163.173 177.5,158C 172.571,156.041 167.904,153.708 163.5,151C 162.929,149.795 162.262,148.628 161.5,147.5C 158.886,146.383 156.719,144.716 155,142.5C 152.566,141.678 150.066,141.344 147.5,141.5C 147.5,140.167 147.5,138.833 147.5,137.5C 145.833,137.5 144.167,137.5 142.5,137.5C 142.5,136.5 142.5,135.5 142.5,134.5C 139.167,133.833 135.833,133.167 132.5,132.5C 132.5,131.833 132.167,131.5 131.5,131.5C 131.167,131.5 130.833,131.5 130.5,131.5 Z"/></g>
<g><path style="opacity:1" fill="#0365a3" d="M 130.5,130.5 C 130.5,130.833 130.5,131.167 130.5,131.5C 129.17,132.832 127.503,133.665 125.5,134C 126.428,134.388 127.095,135.055 127.5,136C 119.614,147.599 112.614,159.766 106.5,172.5C 99.6535,184.536 92.6535,196.203 85.5,207.5C 83.9081,208.602 83.0748,207.935 83,205.5C 81.883,206.949 81.2163,208.616 81,210.5C 80.4163,207.743 80.7496,205.077 82,202.5C 83.0113,201.663 84.1779,201.33 85.5,201.5C 85.1875,198.428 85.8542,195.595 87.5,193C 86.9585,188.433 84.6252,186.933 80.5,188.5C 81.325,189.386 82.325,189.719 83.5,189.5C 83.7153,204.633 78.5486,206.633 68,195.5C 67.7744,192.905 67.2744,190.405 66.5,188C 64.5273,187.505 62.5273,187.338 60.5,187.5C 60.2,182.901 60.5333,178.401 61.5,174C 64.0454,171.935 66.3787,172.102 68.5,174.5C 72.2277,172.652 76.2277,171.652 80.5,171.5C 80.5,170.5 80.5,169.5 80.5,168.5C 76.4941,168.748 72.6608,169.748 69,171.5C 67.6998,170.293 66.1998,169.626 64.5,169.5C 64.8333,168.833 65.1667,168.167 65.5,167.5C 66.4916,167.672 67.1583,167.338 67.5,166.5C 73.1691,164.412 78.1691,161.412 82.5,157.5C 83.766,156.91 85.0993,156.41 86.5,156C 88.5579,152.603 91.5579,150.937 95.5,151C 97.9198,148.391 100.92,146.725 104.5,146C 110.89,141.481 117.224,136.981 123.5,132.5C 126.076,132.532 128.409,131.865 130.5,130.5 Z"/></g>
<g><path style="opacity:1" fill="#3f3592" d="M 130.5,131.5 C 130.5,145.833 130.5,160.167 130.5,174.5C 129.502,200.995 129.169,227.661 129.5,254.5C 128.5,254.5 127.5,254.5 126.5,254.5C 126.499,201.183 125.833,201.183 124.5,254.5C 123.508,250.217 123.174,245.884 123.5,241.5C 116.151,238.574 108.485,237.24 100.5,237.5C 100.5,236.5 100.5,235.5 100.5,234.5C 98.1667,234.5 95.8333,234.5 93.5,234.5C 93.5,233.5 93.5,232.5 93.5,231.5C 88.9014,231.2 84.4014,231.533 80,232.5C 79.3645,231.034 78.5312,229.7 77.5,228.5C 78.3256,227.549 78.4922,226.549 78,225.5C 77.1841,226.823 76.0174,227.489 74.5,227.5C 74.3505,226.448 74.5172,225.448 75,224.5C 78.744,218.968 82.244,213.302 85.5,207.5C 92.6535,196.203 99.6535,184.536 106.5,172.5C 112.614,159.766 119.614,147.599 127.5,136C 127.095,135.055 126.428,134.388 125.5,134C 127.503,133.665 129.17,132.832 130.5,131.5 Z"/></g>
<g><path style="opacity:1" fill="#b90474" d="M 132.5,132.5 C 135.833,133.167 139.167,133.833 142.5,134.5C 142.5,135.5 142.5,136.5 142.5,137.5C 144.167,137.5 145.833,137.5 147.5,137.5C 147.5,138.833 147.5,140.167 147.5,141.5C 150.066,141.344 152.566,141.678 155,142.5C 156.719,144.716 158.886,146.383 161.5,147.5C 162.262,148.628 162.929,149.795 163.5,151C 167.904,153.708 172.571,156.041 177.5,158C 181.143,163.173 186.143,166.173 192.5,167C 193.167,169 194.5,170.333 196.5,171C 204.942,172.7 212.275,176.367 218.5,182C 229.482,188.017 240.815,193.684 252.5,199C 253.252,199.671 253.586,200.504 253.5,201.5C 251.516,201.617 249.85,200.95 248.5,199.5C 246.316,198.892 244.316,199.559 242.5,201.5C 241.833,201.167 241.167,200.833 240.5,200.5C 241.325,199.614 242.325,199.281 243.5,199.5C 243.5,198.167 243.5,196.833 243.5,195.5C 242.5,195.5 241.5,195.5 240.5,195.5C 240.5,196.5 240.5,197.5 240.5,198.5C 236.167,198.5 231.833,198.5 227.5,198.5C 227.5,197.5 227.5,196.5 227.5,195.5C 239.35,196.049 240.017,194.382 229.5,190.5C 218.865,195.022 214.865,203.022 217.5,214.5C 216.167,214.5 214.833,214.5 213.5,214.5C 213.5,210.167 213.5,205.833 213.5,201.5C 212.167,201.5 210.833,201.5 209.5,201.5C 209.5,205.833 209.5,210.167 209.5,214.5C 206.5,214.5 203.5,214.5 200.5,214.5C 200.5,216.167 200.5,217.833 200.5,219.5C 191.646,221.887 190.479,226.22 197,232.5C 197.667,233.5 197.667,234.5 197,235.5C 193.935,234.064 191.769,231.731 190.5,228.5C 189.675,227.614 188.675,227.281 187.5,227.5C 184.502,220.839 180.502,214.839 175.5,209.5C 174.634,206.833 173.634,204.167 172.5,201.5C 167.227,196.738 163.893,190.905 162.5,184C 157.711,176.402 152.878,168.902 148,161.5C 147.51,160.207 147.343,158.873 147.5,157.5C 146.178,157.67 145.011,157.337 144,156.5C 141.21,150.742 138.71,144.742 136.5,138.5C 135.675,137.614 134.675,137.281 133.5,137.5C 133.371,135.784 133.038,134.117 132.5,132.5 Z"/></g>
<g><path style="opacity:1" fill="#0c8c7c" d="M 82.5,157.5 C 78.1691,161.412 73.1691,164.412 67.5,166.5C 70.0516,164.057 73.0516,162.39 76.5,161.5C 76.5,160.167 76.5,158.833 76.5,157.5C 78.5,157.5 80.5,157.5 82.5,157.5 Z"/></g>
<g><path style="opacity:1" fill="#097783" d="M 65.5,167.5 C 65.1667,168.167 64.8333,168.833 64.5,169.5C 61.3777,170.982 58.3777,172.649 55.5,174.5C 58.1251,171.185 61.4584,168.851 65.5,167.5 Z"/></g>
<g><path style="opacity:1" fill="#03619d" d="M 85.5,207.5 C 82.244,213.302 78.744,218.968 75,224.5C 74.5172,225.448 74.3505,226.448 74.5,227.5C 71.2828,232.911 67.7828,238.244 64,243.5C 63.433,246.168 62.933,248.834 62.5,251.5C 61.5,251.5 60.5,251.5 59.5,251.5C 58.9622,254.905 57.6288,257.905 55.5,260.5C 52.1667,260.5 48.8333,260.5 45.5,260.5C 19.9553,254.955 4.95528,239.288 0.5,213.5C 0.186646,210.753 0.519979,208.086 1.5,205.5C 3.188,204.479 4.52134,203.145 5.5,201.5C 6.16667,201.5 6.83333,201.5 7.5,201.5C 9.77725,200.551 11.7772,199.218 13.5,197.5C 17.2219,197.139 20.2219,195.472 22.5,192.5C 29.3169,188.56 36.3169,184.726 43.5,181C 44.1667,180 44.8333,179 45.5,178C 48.8993,176.823 52.2326,175.656 55.5,174.5C 58.3777,172.649 61.3777,170.982 64.5,169.5C 66.1998,169.626 67.6998,170.293 69,171.5C 72.6608,169.748 76.4941,168.748 80.5,168.5C 80.5,169.5 80.5,170.5 80.5,171.5C 76.2277,171.652 72.2277,172.652 68.5,174.5C 66.3787,172.102 64.0454,171.935 61.5,174C 60.5333,178.401 60.2,182.901 60.5,187.5C 62.5273,187.338 64.5273,187.505 66.5,188C 67.2744,190.405 67.7744,192.905 68,195.5C 78.5486,206.633 83.7153,204.633 83.5,189.5C 82.325,189.719 81.325,189.386 80.5,188.5C 84.6252,186.933 86.9585,188.433 87.5,193C 85.8542,195.595 85.1875,198.428 85.5,201.5C 84.1779,201.33 83.0113,201.663 82,202.5C 80.7496,205.077 80.4163,207.743 81,210.5C 81.2163,208.616 81.883,206.949 83,205.5C 83.0748,207.935 83.9081,208.602 85.5,207.5 Z"/></g>
<g><path style="opacity:1" fill="#8e1770" d="M 131.5,131.5 C 132.167,131.5 132.5,131.833 132.5,132.5C 133.038,134.117 133.371,135.784 133.5,137.5C 134.675,137.281 135.675,137.614 136.5,138.5C 138.71,144.742 141.21,150.742 144,156.5C 145.011,157.337 146.178,157.67 147.5,157.5C 147.343,158.873 147.51,160.207 148,161.5C 152.878,168.902 157.711,176.402 162.5,184C 163.893,190.905 167.227,196.738 172.5,201.5C 173.634,204.167 174.634,206.833 175.5,209.5C 174.533,208.194 173.199,207.527 171.5,207.5C 170.855,210.547 171.855,212.713 174.5,214C 174.043,214.414 173.709,214.914 173.5,215.5C 175.817,217.737 175.983,220.07 174,222.5C 165.251,221.516 156.418,221.183 147.5,221.5C 147.5,223.5 147.5,225.5 147.5,227.5C 142.833,227.5 138.167,227.5 133.5,227.5C 133.666,232.179 133.499,236.845 133,241.5C 132.832,223.329 132.332,205.329 131.5,187.5C 131.5,168.833 131.5,150.167 131.5,131.5 Z"/></g>
<g><path style="opacity:1" fill="#6e2476" d="M 130.5,131.5 C 130.833,131.5 131.167,131.5 131.5,131.5C 131.5,150.167 131.5,168.833 131.5,187.5C 131.333,211.169 131.5,234.836 132,258.5C 132.717,259.044 133.217,259.711 133.5,260.5C 132.5,260.5 131.5,260.5 130.5,260.5C 130.5,231.833 130.5,203.167 130.5,174.5C 130.5,160.167 130.5,145.833 130.5,131.5 Z"/></g>
<g><path style="opacity:1" fill="#b41273" d="M 260.5,129.5 C 260.833,129.5 261.167,129.5 261.5,129.5C 261.5,157.5 261.5,185.5 261.5,213.5C 260.833,213.5 260.5,213.833 260.5,214.5C 258.416,217.12 256.416,219.954 254.5,223C 255.059,223.725 255.392,224.558 255.5,225.5C 253.863,228.745 251.863,231.745 249.5,234.5C 247.294,229.715 244.628,229.382 241.5,233.5C 240.534,231.604 240.201,229.604 240.5,227.5C 235.821,227.334 231.155,227.501 226.5,228C 219.289,236.054 211.623,243.721 203.5,251C 206.109,253.834 209.442,255.167 213.5,255C 210.183,255.498 206.85,255.665 203.5,255.5C 200.124,252.749 198.291,249.082 198,244.5C 196.736,242.393 194.903,241.393 192.5,241.5C 192.887,237.276 191.387,233.943 188,231.5C 187.51,230.207 187.343,228.873 187.5,227.5C 188.675,227.281 189.675,227.614 190.5,228.5C 191.769,231.731 193.935,234.064 197,235.5C 197.667,234.5 197.667,233.5 197,232.5C 190.479,226.22 191.646,221.887 200.5,219.5C 200.5,217.833 200.5,216.167 200.5,214.5C 203.5,214.5 206.5,214.5 209.5,214.5C 209.5,210.167 209.5,205.833 209.5,201.5C 210.833,201.5 212.167,201.5 213.5,201.5C 213.5,205.833 213.5,210.167 213.5,214.5C 214.833,214.5 216.167,214.5 217.5,214.5C 214.865,203.022 218.865,195.022 229.5,190.5C 240.017,194.382 239.35,196.049 227.5,195.5C 227.5,196.5 227.5,197.5 227.5,198.5C 231.833,198.5 236.167,198.5 240.5,198.5C 240.5,197.5 240.5,196.5 240.5,195.5C 241.5,195.5 242.5,195.5 243.5,195.5C 243.5,196.833 243.5,198.167 243.5,199.5C 242.325,199.281 241.325,199.614 240.5,200.5C 241.167,200.833 241.833,201.167 242.5,201.5C 244.316,199.559 246.316,198.892 248.5,199.5C 249.85,200.95 251.516,201.617 253.5,201.5C 256.674,201.719 258.507,203.385 259,206.5C 259.464,205.906 259.631,205.239 259.5,204.5C 260.498,180.006 260.831,155.339 260.5,130.5C 260.5,130.167 260.5,129.833 260.5,129.5 Z"/></g>
<g><path style="opacity:1" fill="#077883" d="M 22.5,192.5 C 20.2219,195.472 17.2219,197.139 13.5,197.5C 13.5,197.167 13.5,196.833 13.5,196.5C 16.5096,195.092 19.5096,193.759 22.5,192.5 Z"/></g>
<g><path style="opacity:1" fill="#0c9379" d="M 13.5,196.5 C 13.5,196.833 13.5,197.167 13.5,197.5C 11.7772,199.218 9.77725,200.551 7.5,201.5C 7.6509,197.686 9.6509,196.019 13.5,196.5 Z"/></g>
<g><path style="opacity:1" fill="#8a196e" d="M 131.5,187.5 C 132.332,205.329 132.832,223.329 133,241.5C 133.499,236.845 133.666,232.179 133.5,227.5C 138.167,227.5 142.833,227.5 147.5,227.5C 147.5,225.5 147.5,223.5 147.5,221.5C 156.418,221.183 165.251,221.516 174,222.5C 175.983,220.07 175.817,217.737 173.5,215.5C 173.709,214.914 174.043,214.414 174.5,214C 171.855,212.713 170.855,210.547 171.5,207.5C 173.199,207.527 174.533,208.194 175.5,209.5C 180.502,214.839 184.502,220.839 187.5,227.5C 187.343,228.873 187.51,230.207 188,231.5C 191.387,233.943 192.887,237.276 192.5,241.5C 194.903,241.393 196.736,242.393 198,244.5C 198.291,249.082 200.124,252.749 203.5,255.5C 203.5,256.833 203.5,258.167 203.5,259.5C 207.042,259.187 210.375,259.521 213.5,260.5C 186.833,260.5 160.167,260.5 133.5,260.5C 133.217,259.711 132.717,259.044 132,258.5C 131.5,234.836 131.333,211.169 131.5,187.5 Z"/></g>
<g><path style="opacity:1" fill="#b0116e" d="M 260.5,214.5 C 255.436,240.231 240.102,255.564 214.5,260.5C 214.167,260.5 213.833,260.5 213.5,260.5C 210.375,259.521 207.042,259.187 203.5,259.5C 203.5,258.167 203.5,256.833 203.5,255.5C 206.85,255.665 210.183,255.498 213.5,255C 209.442,255.167 206.109,253.834 203.5,251C 211.623,243.721 219.289,236.054 226.5,228C 231.155,227.501 235.821,227.334 240.5,227.5C 240.201,229.604 240.534,231.604 241.5,233.5C 244.628,229.382 247.294,229.715 249.5,234.5C 251.863,231.745 253.863,228.745 255.5,225.5C 255.392,224.558 255.059,223.725 254.5,223C 256.416,219.954 258.416,217.12 260.5,214.5 Z"/></g>
<g><path style="opacity:1" fill="#3d308e" d="M 130.5,174.5 C 130.5,203.167 130.5,231.833 130.5,260.5C 105.5,260.5 80.5,260.5 55.5,260.5C 57.6288,257.905 58.9622,254.905 59.5,251.5C 60.5,251.5 61.5,251.5 62.5,251.5C 62.933,248.834 63.433,246.168 64,243.5C 67.7828,238.244 71.2828,232.911 74.5,227.5C 76.0174,227.489 77.1841,226.823 78,225.5C 78.4922,226.549 78.3256,227.549 77.5,228.5C 78.5312,229.7 79.3645,231.034 80,232.5C 84.4014,231.533 88.9014,231.2 93.5,231.5C 93.5,232.5 93.5,233.5 93.5,234.5C 95.8333,234.5 98.1667,234.5 100.5,234.5C 100.5,235.5 100.5,236.5 100.5,237.5C 108.485,237.24 116.151,238.574 123.5,241.5C 123.174,245.884 123.508,250.217 124.5,254.5C 125.833,201.183 126.499,201.183 126.5,254.5C 127.5,254.5 128.5,254.5 129.5,254.5C 129.169,227.661 129.502,200.995 130.5,174.5 Z"/></g>
</svg>
