<svg width="67.451" height="87.801" viewBox="0 0 67.451 87.801" xmlns="http://www.w3.org/2000/svg"><g id="svgGroup" stroke-linecap="round" fill-rule="evenodd" font-size="9pt" stroke="#879095" stroke-width="0.25mm" fill="#879095" style="stroke:#879095;stroke-width:0.25mm;fill:#879095"><path d="M 66.697 60.278 A 47.438 47.438 0 0 0 67.45 51.65 A 49.556 49.556 0 0 0 67.161 46.221 A 39.834 39.834 0 0 0 65 36.825 A 38.269 38.269 0 0 0 64.099 34.587 A 32.412 32.412 0 0 0 58.1 25.4 Q 53.65 20.65 47.45 18.075 A 32.292 32.292 0 0 0 42.164 16.402 A 38.354 38.354 0 0 0 33.7 15.5 A 40.454 40.454 0 0 0 30.445 15.629 A 33.714 33.714 0 0 0 20.05 18.1 Q 13.85 20.7 9.4 25.425 Q 4.95 30.15 2.475 36.825 A 38.001 38.001 0 0 0 0.784 42.948 A 46.526 46.526 0 0 0 0 51.65 A 49.529 49.529 0 0 0 0.293 57.107 A 39.51 39.51 0 0 0 2.475 66.525 A 38.363 38.363 0 0 0 3.473 68.96 A 32.347 32.347 0 0 0 9.4 77.925 Q 13.85 82.65 20.05 85.225 A 32.34 32.34 0 0 0 24.876 86.794 A 37.51 37.51 0 0 0 33.7 87.8 A 41.187 41.187 0 0 0 37.841 87.596 A 33.756 33.756 0 0 0 47.45 85.225 Q 53.65 82.65 58.1 77.925 Q 62.55 73.2 65 66.525 A 38.291 38.291 0 0 0 66.697 60.278 Z M 62.15 51.65 Q 62.15 44.25 60.1 38.35 A 31.068 31.068 0 0 0 57.17 32.13 A 26.024 26.024 0 0 0 54.325 28.35 Q 50.6 24.25 45.35 22.075 A 28.647 28.647 0 0 0 37.209 20.072 A 35.024 35.024 0 0 0 33.7 19.9 A 31.714 31.714 0 0 0 26.333 20.729 A 27.194 27.194 0 0 0 22.175 22.075 Q 16.95 24.25 13.175 28.35 A 27.191 27.191 0 0 0 8.548 35.343 A 33.168 33.168 0 0 0 7.325 38.35 A 36.036 36.036 0 0 0 5.593 45.885 A 46.799 46.799 0 0 0 5.25 51.65 A 45.863 45.863 0 0 0 5.769 58.706 A 34.924 34.924 0 0 0 7.325 64.975 A 30.714 30.714 0 0 0 10.389 71.326 A 26.11 26.11 0 0 0 13.175 74.95 Q 16.95 79.05 22.175 81.2 Q 27.4 83.35 33.7 83.35 A 33.003 33.003 0 0 0 40.806 82.612 A 27.635 27.635 0 0 0 45.35 81.2 Q 50.6 79.05 54.325 74.95 A 27.326 27.326 0 0 0 58.893 67.971 A 33.362 33.362 0 0 0 60.1 64.975 A 35.973 35.973 0 0 0 61.786 57.656 A 47.51 47.51 0 0 0 62.15 51.65 Z M 36.05 0 L 47.8 9.95 L 44.15 9.95 Q 43.757 9.95 43.29 9.829 A 4.723 4.723 0 0 1 43.275 9.825 Q 42.8 9.7 42.45 9.45 L 34.65 3.3 Q 34.251 3.001 34.101 2.851 L 33.85 2.6 A 2.988 2.988 0 0 1 33.781 2.667 Q 33.698 2.744 33.583 2.843 A 9.494 9.494 0 0 1 33.575 2.85 A 4.891 4.891 0 0 1 33.474 2.934 Q 33.309 3.068 33.03 3.278 A 32.659 32.659 0 0 1 33 3.3 L 25.15 9.45 A 2.475 2.475 0 0 1 24.489 9.783 A 2.874 2.874 0 0 1 24.35 9.825 A 3.537 3.537 0 0 1 23.867 9.925 A 2.801 2.801 0 0 1 23.5 9.95 L 19.8 9.95 L 31.55 0 L 36.05 0 Z" vector-effect="non-scaling-stroke"/></g></svg>