<?xml version="1.0" encoding="UTF-8"?>
<!DOCTYPE svg PUBLIC "-//W3C//DTD SVG 1.1//EN" "http://www.w3.org/Graphics/SVG/1.1/DTD/svg11.dtd">
<svg xmlns="http://www.w3.org/2000/svg" version="1.1" width="82px" height="128px" style="shape-rendering:geometricPrecision; text-rendering:geometricPrecision; image-rendering:optimizeQuality; fill-rule:evenodd; clip-rule:evenodd" xmlns:xlink="http://www.w3.org/1999/xlink">
<g><path style="opacity:1" fill="#2a55b6" d="M 33.5,4.5 C 45.6783,4.17159 57.6783,4.50492 69.5,5.5C 57.4815,5.16769 45.4815,5.50103 33.5,6.5C 32.9649,8.26099 31.9649,9.59433 30.5,10.5C 30.7549,8.03259 31.7549,6.03259 33.5,4.5 Z"/></g>
<g><path style="opacity:0.988" fill="#819ce3" d="M 33.5,4.5 C 45.6597,3.34014 57.9931,3.17347 70.5,4C 71.5536,5.38762 71.7203,6.88762 71,8.5C 68.3302,15.1731 65.1635,21.5064 61.5,27.5C 61.2606,25.5328 61.5939,23.6995 62.5,22C 61.8333,21.6667 61.1667,21.3333 60.5,21C 61.7932,20.51 63.1266,20.3433 64.5,20.5C 65.8493,15.4511 67.5159,10.4511 69.5,5.5C 57.6783,4.50492 45.6783,4.17159 33.5,4.5 Z"/></g>
<g><path style="opacity:1" fill="#2764ea" d="M 69.5,5.5 C 67.5159,10.4511 65.8493,15.4511 64.5,20.5C 63.1266,20.3433 61.7932,20.51 60.5,21C 61.1667,21.3333 61.8333,21.6667 62.5,22C 61.5939,23.6995 61.2606,25.5328 61.5,27.5C 61.5,27.8333 61.5,28.1667 61.5,28.5C 58.2891,30.9208 56.6225,34.2542 56.5,38.5C 56.0293,40.5786 55.3627,42.5786 54.5,44.5C 53.6618,44.8417 53.3284,45.5084 53.5,46.5C 60.3213,47.3285 67.3213,47.8285 74.5,48C 73.7734,49.3988 73.2734,50.8988 73,52.5C 72.6667,51.8333 72.3333,51.1667 72,50.5C 70.0528,51.1097 68.2194,51.9431 66.5,53C 68.9193,54.5088 69.9193,56.6755 69.5,59.5C 68.1266,59.3433 66.7932,59.51 65.5,60C 66.3802,61.3561 66.7135,62.8561 66.5,64.5C 63.0757,66.7743 59.409,68.7743 55.5,70.5C 56.1667,71.1667 56.8333,71.8333 57.5,72.5C 53.5237,74.7901 51.1903,78.1234 50.5,82.5C 47.8309,84.1331 44.8309,85.2998 41.5,86C 43.607,87.2635 44.607,89.0968 44.5,91.5C 41.4775,91.1052 40.4775,92.1052 41.5,94.5C 40.219,96.5996 38.5524,98.2663 36.5,99.5C 35.5481,101.045 35.2148,102.712 35.5,104.5C 35.1667,105.5 34.5,106.167 33.5,106.5C 32.2652,106.721 31.2652,107.388 30.5,108.5C 29.549,107.674 28.549,107.508 27.5,108C 28.3802,109.356 28.7135,110.856 28.5,112.5C 27.1779,112.67 26.0113,112.337 25,111.5C 22.6966,112.744 22.1966,114.411 23.5,116.5C 22.3112,117.429 20.9778,117.762 19.5,117.5C 20.6168,112.558 21.7834,107.558 23,102.5C 23.4983,99.1832 23.665,95.8499 23.5,92.5C 23.3253,90.3792 23.6586,88.3792 24.5,86.5C 26.0395,84.1617 26.7062,81.4951 26.5,78.5C 26.5,78.1667 26.5,77.8333 26.5,77.5C 27.4511,76.0813 27.7845,74.4147 27.5,72.5C 21.3466,71.6721 15.0133,71.1721 8.5,71C 7.53423,67.5649 7.53423,64.0649 8.5,60.5C 9.59695,57.3135 10.9303,54.3135 12.5,51.5C 16.5022,47.8368 18.5022,43.1701 18.5,37.5C 19.5,37.5 20.5,37.5 21.5,37.5C 21.7038,34.4824 22.0371,31.4824 22.5,28.5C 23.4629,25.2558 24.7962,22.2558 26.5,19.5C 29.4688,17.3799 30.8021,14.3799 30.5,10.5C 31.9649,9.59433 32.9649,8.26099 33.5,6.5C 45.4815,5.50103 57.4815,5.16769 69.5,5.5 Z"/></g>
<g><path style="opacity:1" fill="#5478d4" d="M 30.5,10.5 C 30.8021,14.3799 29.4688,17.3799 26.5,19.5C 27.0749,16.0884 28.4082,13.0884 30.5,10.5 Z"/></g>
<g><path style="opacity:1" fill="#6582d4" d="M 61.5,28.5 C 60.3411,32.1513 58.6744,35.4846 56.5,38.5C 56.6225,34.2542 58.2891,30.9208 61.5,28.5 Z"/></g>
<g><path style="opacity:1" fill="#567ad1" d="M 22.5,28.5 C 22.0371,31.4824 21.7038,34.4824 21.5,37.5C 20.5,37.5 19.5,37.5 18.5,37.5C 19.4629,34.2558 20.7962,31.2558 22.5,28.5 Z"/></g>
<g><path style="opacity:0.145" fill="#c6e9ff" d="M 54.5,44.5 C 61.8333,45.1667 69.1667,45.8333 76.5,46.5C 68.8333,46.5 61.1667,46.5 53.5,46.5C 53.3284,45.5084 53.6618,44.8417 54.5,44.5 Z"/></g>
<g><path style="opacity:1" fill="#5678d7" d="M 18.5,37.5 C 18.5022,43.1701 16.5022,47.8368 12.5,51.5C 13.9884,46.5329 15.9884,41.8662 18.5,37.5 Z"/></g>
<g><path style="opacity:1" fill="#4d70dc" d="M 53.5,46.5 C 61.1667,46.5 68.8333,46.5 76.5,46.5C 78.0847,47.0024 78.5847,48.0024 78,49.5C 74.3031,54.6851 70.4698,59.6851 66.5,64.5C 66.7135,62.8561 66.3802,61.3561 65.5,60C 66.7932,59.51 68.1266,59.3433 69.5,59.5C 69.9193,56.6755 68.9193,54.5088 66.5,53C 68.2194,51.9431 70.0528,51.1097 72,50.5C 72.3333,51.1667 72.6667,51.8333 73,52.5C 73.2734,50.8988 73.7734,49.3988 74.5,48C 67.3213,47.8285 60.3213,47.3285 53.5,46.5 Z"/></g>
<g><path style="opacity:1" fill="#3860c6" d="M 8.5,60.5 C 7.53423,64.0649 7.53423,67.5649 8.5,71C 15.0133,71.1721 21.3466,71.6721 27.5,72.5C 20.1667,72.5 12.8333,72.5 5.5,72.5C 4.38705,71.0536 4.22039,69.3869 5,67.5C 6.21261,65.0748 7.37927,62.7415 8.5,60.5 Z"/></g>
<g><path style="opacity:0.282" fill="#afd1fd" d="M 5.5,72.5 C 12.8333,72.5 20.1667,72.5 27.5,72.5C 27.7845,74.4147 27.4511,76.0813 26.5,77.5C 26.5,76.1667 26.5,74.8333 26.5,73.5C 19.3134,73.8245 12.3134,73.4912 5.5,72.5 Z"/></g>
<g><path style="opacity:1" fill="#5176dd" d="M 66.5,64.5 C 56.1554,77.8721 45.8221,91.2054 35.5,104.5C 35.2148,102.712 35.5481,101.045 36.5,99.5C 38.5524,98.2663 40.219,96.5996 41.5,94.5C 40.4775,92.1052 41.4775,91.1052 44.5,91.5C 44.607,89.0968 43.607,87.2635 41.5,86C 44.8309,85.2998 47.8309,84.1331 50.5,82.5C 51.1903,78.1234 53.5237,74.7901 57.5,72.5C 56.8333,71.8333 56.1667,71.1667 55.5,70.5C 59.409,68.7743 63.0757,66.7743 66.5,64.5 Z"/></g>
<g><path style="opacity:0.612" fill="#91ace9" d="M 26.5,78.5 C 26.7062,81.4951 26.0395,84.1617 24.5,86.5C 24.5651,83.5718 25.2318,80.9052 26.5,78.5 Z"/></g>
<g><path style="opacity:1" fill="#4970de" d="M 33.5,106.5 C 29.984,112.2 25.984,117.533 21.5,122.5C 20.5,122.5 19.5,122.5 18.5,122.5C 18.6287,120.784 18.962,119.117 19.5,117.5C 20.9778,117.762 22.3112,117.429 23.5,116.5C 22.1966,114.411 22.6966,112.744 25,111.5C 26.0113,112.337 27.1779,112.67 28.5,112.5C 28.7135,110.856 28.3802,109.356 27.5,108C 28.549,107.508 29.549,107.674 30.5,108.5C 31.2652,107.388 32.2652,106.721 33.5,106.5 Z"/></g>
<g><path style="opacity:1" fill="#5f7ed2" d="M 23.5,92.5 C 23.665,95.8499 23.4983,99.1832 23,102.5C 21.7834,107.558 20.6168,112.558 19.5,117.5C 18.962,119.117 18.6287,120.784 18.5,122.5C 19.5,122.5 20.5,122.5 21.5,122.5C 19.8369,125.052 18.1702,124.886 16.5,122C 18.6573,112.03 20.9907,102.197 23.5,92.5 Z"/></g>
</svg>
