<?xml version="1.0" encoding="UTF-8"?>
<!DOCTYPE svg PUBLIC "-//W3C//DTD SVG 1.1//EN" "http://www.w3.org/Graphics/SVG/1.1/DTD/svg11.dtd">
<svg xmlns="http://www.w3.org/2000/svg" version="1.1" width="300px" height="300px" style="shape-rendering:geometricPrecision; text-rendering:geometricPrecision; image-rendering:optimizeQuality; fill-rule:evenodd; clip-rule:evenodd" xmlns:xlink="http://www.w3.org/1999/xlink">
<g><path style="opacity:0.835" fill="#2d0e19" d="M 132.5,6.5 C 143.993,5.34053 155.659,5.17387 167.5,6C 171.736,6.33489 175.736,7.16823 179.5,8.5C 163.891,6.78441 148.224,6.11774 132.5,6.5 Z"/></g>
<g><path style="opacity:1" fill="#621a34" d="M 132.5,6.5 C 148.224,6.11774 163.891,6.78441 179.5,8.5C 200.36,12.2188 219.027,20.5522 235.5,33.5C 236.585,35.5869 238.251,36.9202 240.5,37.5C 241.585,39.5869 243.251,40.9202 245.5,41.5C 249.167,44.5 252.5,47.8333 255.5,51.5C 256.757,54.4274 258.757,56.7607 261.5,58.5C 262.08,60.7488 263.413,62.4154 265.5,63.5C 278.448,79.9735 286.781,98.6402 290.5,119.5C 292.731,137.45 293.064,155.45 291.5,173.5C 287.719,196.876 278.719,217.876 264.5,236.5C 264.667,224.495 264.5,212.495 264,200.5C 260.977,195.404 256.477,193.071 250.5,193.5C 248.006,188.076 243.673,185.41 237.5,185.5C 213.103,188.813 189.103,193.979 165.5,201C 158.366,205.203 150.7,206.537 142.5,205C 115.421,195.456 87.5878,188.956 59,185.5C 53.0574,185.546 48.8907,188.213 46.5,193.5C 40.8972,193.556 37.0638,196.223 35,201.5C 34.5002,212.495 34.3335,223.495 34.5,234.5C 10.3752,201.751 1.54182,165.085 8,124.5C 18.635,72.7186 48.135,36.2186 96.5,15C 108.07,10.2739 120.07,7.44052 132.5,6.5 Z"/></g>
<g><path style="opacity:0.218" fill="#0f0306" d="M 235.5,33.5 C 237.749,34.0798 239.415,35.4131 240.5,37.5C 238.251,36.9202 236.585,35.5869 235.5,33.5 Z"/></g>
<g><path style="opacity:0.298" fill="#0b0104" d="M 240.5,37.5 C 242.749,38.0798 244.415,39.4131 245.5,41.5C 243.251,40.9202 241.585,39.5869 240.5,37.5 Z"/></g>
<g><path style="opacity:0.573" fill="#120408" d="M 255.5,51.5 C 258.243,53.2393 260.243,55.5726 261.5,58.5C 258.757,56.7607 256.757,54.4274 255.5,51.5 Z"/></g>
<g><path style="opacity:0.218" fill="#0f0206" d="M 261.5,58.5 C 263.587,59.5846 264.92,61.2512 265.5,63.5C 263.413,62.4154 262.08,60.7488 261.5,58.5 Z"/></g>
<g><path style="opacity:1" fill="#5d3a4a" d="M 214.5,126.5 C 214.56,125.957 214.893,125.624 215.5,125.5C 216.833,139.5 216.833,153.5 215.5,167.5C 214.893,167.376 214.56,167.043 214.5,166.5C 215.833,153.167 215.833,139.833 214.5,126.5 Z"/></g>
<g><path style="opacity:1" fill="#2dcabf" d="M 214.5,126.5 C 215.833,139.833 215.833,153.167 214.5,166.5C 203.991,156.869 191.824,149.869 178,145.5C 177.5,139.175 177.334,132.842 177.5,126.5C 183.862,129.121 190.362,131.455 197,133.5C 203.028,131.566 208.861,129.233 214.5,126.5 Z"/></g>
<g><path style="opacity:0.976" fill="#330f1c" d="M 290.5,119.5 C 291.832,123.264 292.665,127.264 293,131.5C 293.167,137.333 293.333,143.167 293.5,149C 293.702,157.392 293.035,165.559 291.5,173.5C 293.064,155.45 292.731,137.45 290.5,119.5 Z"/></g>
<g><path style="opacity:1" fill="#a51b48" d="M 138.5,146.5 C 165.01,144.541 188.677,151.707 209.5,168C 214.057,172.054 218.057,176.554 221.5,181.5C 203.345,184.965 185.345,189.131 167.5,194C 161.906,197.304 155.906,199.138 149.5,199.5C 125.666,191.959 101.333,186.126 76.5,182C 92.5978,162.12 113.264,150.286 138.5,146.5 Z"/></g>
<g><path style="opacity:1" fill="#f9f9fa" d="M 250.5,193.5 C 221.871,198.828 193.204,204.161 164.5,209.5C 154.5,209.5 144.5,209.5 134.5,209.5C 105.146,204.296 75.8123,198.962 46.5,193.5C 48.8907,188.213 53.0574,185.546 59,185.5C 87.5878,188.956 115.421,195.456 142.5,205C 150.7,206.537 158.366,205.203 165.5,201C 189.103,193.979 213.103,188.813 237.5,185.5C 243.673,185.41 248.006,188.076 250.5,193.5 Z"/></g>
<g><path style="opacity:0.997" fill="#29cec2" d="M 46.5,193.5 C 75.8123,198.962 105.146,204.296 134.5,209.5C 135.158,237.187 134.491,264.52 132.5,291.5C 91.5642,286.377 58.8976,267.377 34.5,234.5C 34.3335,223.495 34.5002,212.495 35,201.5C 37.0638,196.223 40.8972,193.556 46.5,193.5 Z"/></g>
<g><path style="opacity:1" fill="#23afa6" d="M 250.5,193.5 C 256.477,193.071 260.977,195.404 264,200.5C 264.5,212.495 264.667,224.495 264.5,236.5C 239.17,269.103 205.836,287.769 164.5,292.5C 164.5,264.833 164.5,237.167 164.5,209.5C 193.204,204.161 221.871,198.828 250.5,193.5 Z"/></g>
<g><path style="opacity:1" fill="#26bfb5" d="M 134.5,209.5 C 144.5,209.5 154.5,209.5 164.5,209.5C 164.5,237.167 164.5,264.833 164.5,292.5C 153.654,292.828 142.987,292.494 132.5,291.5C 134.491,264.52 135.158,237.187 134.5,209.5 Z"/></g>
</svg>
