<?xml version="1.0" encoding="UTF-8"?>
<!DOCTYPE svg PUBLIC "-//W3C//DTD SVG 1.1//EN" "http://www.w3.org/Graphics/SVG/1.1/DTD/svg11.dtd">
<svg xmlns="http://www.w3.org/2000/svg" version="1.1" width="225px" height="225px" style="shape-rendering:geometricPrecision; text-rendering:geometricPrecision; image-rendering:optimizeQuality; fill-rule:evenodd; clip-rule:evenodd" xmlns:xlink="http://www.w3.org/1999/xlink">
<g><path style="opacity:1" fill="#7d71e5" d="M 113.5,11.5 C 112.504,11.4142 111.671,11.7476 111,12.5C 110.505,14.4727 110.338,16.4727 110.5,18.5C 109.5,18.5 108.5,18.5 107.5,18.5C 108.374,15.0812 109.54,11.7478 111,8.5C 111.667,7.16667 112.333,7.16667 113,8.5C 113.483,9.44802 113.649,10.448 113.5,11.5 Z"/></g>
<g><path style="opacity:0.976" fill="#877ae7" d="M 113.5,11.5 C 115.204,14.2558 116.537,17.2558 117.5,20.5C 116.504,20.5858 115.671,20.2524 115,19.5C 114.178,16.8832 113.678,14.2165 113.5,11.5 Z"/></g>
<g><path style="opacity:1" fill="#7c70ea" d="M 107.5,18.5 C 107.765,22.6533 106.431,25.9867 103.5,28.5C 104.321,24.8733 105.654,21.54 107.5,18.5 Z"/></g>
<g><path style="opacity:1" fill="#776ce6" d="M 103.5,28.5 C 103.765,32.6533 102.431,35.9867 99.5,38.5C 100.321,34.8733 101.654,31.54 103.5,28.5 Z"/></g>
<g><path style="opacity:0.976" fill="#7a6ee3" d="M 99.5,38.5 C 99.1905,44.3784 97.1905,49.3784 93.5,53.5C 95.129,48.2647 97.129,43.2647 99.5,38.5 Z"/></g>
<g><path style="opacity:1" fill="#786be9" d="M 93.5,53.5 C 93.2152,57.521 92.2152,61.3543 90.5,65C 90.6448,66.2259 90.9781,67.3926 91.5,68.5C 90.7376,68.9106 89.7376,69.0773 88.5,69C 88.0257,70.7286 87.0257,71.8953 85.5,72.5C 87.7958,65.9273 90.4625,59.5939 93.5,53.5 Z"/></g>
<g><path style="opacity:1" fill="#786be4" d="M 85.5,73.5 C 85.3215,76.2165 84.8215,78.8832 84,81.5C 83.3292,82.2524 82.4959,82.5858 81.5,82.5C 82.4629,79.2558 83.7962,76.2558 85.5,73.5 Z"/></g>
<g><path style="opacity:1" fill="#8377e2" d="M 139.5,75.5 C 141.346,78.54 142.679,81.8733 143.5,85.5C 140.669,82.9122 139.335,79.5788 139.5,75.5 Z"/></g>
<g><path style="opacity:1" fill="#7a6ee5" d="M 151.5,105.5 C 153.204,108.256 154.537,111.256 155.5,114.5C 154.504,114.586 153.671,114.252 153,113.5C 152.178,110.883 151.678,108.216 151.5,105.5 Z"/></g>
<g><path style="opacity:1" fill="#7368e4" d="M 71.5,107.5 C 70.6625,112.935 69.3291,118.268 67.5,123.5C 65.3161,125.664 63.9828,128.331 63.5,131.5C 62.8165,131.863 62.1499,132.196 61.5,132.5C 64.4623,123.931 67.7956,115.598 71.5,107.5 Z"/></g>
<g><path style="opacity:1" fill="#746ae4" d="M 159.5,125.5 C 161.204,128.256 162.537,131.256 163.5,134.5C 162.504,134.586 161.671,134.252 161,133.5C 160.178,130.883 159.678,128.216 159.5,125.5 Z"/></g>
<g><path style="opacity:1" fill="#5f58fd" d="M 113.5,11.5 C 113.678,14.2165 114.178,16.8832 115,19.5C 115.671,20.2524 116.504,20.5858 117.5,20.5C 125.107,38.7162 132.441,57.0496 139.5,75.5C 139.335,79.5788 140.669,82.9122 143.5,85.5C 146.686,91.8843 149.352,98.551 151.5,105.5C 151.678,108.216 152.178,110.883 153,113.5C 153.671,114.252 154.504,114.586 155.5,114.5C 157.229,118.021 158.562,121.687 159.5,125.5C 159.678,128.216 160.178,130.883 161,133.5C 161.671,134.252 162.504,134.586 163.5,134.5C 163.5,134.833 163.5,135.167 163.5,135.5C 163.198,139.38 164.531,142.38 167.5,144.5C 167.102,150.625 169.102,155.625 173.5,159.5C 174.537,160.93 175.204,162.597 175.5,164.5C 175.737,168.681 176.737,172.681 178.5,176.5C 178.331,178.839 177.664,181.006 176.5,183C 177.946,181.801 179.612,180.634 181.5,179.5C 181.678,182.216 182.178,184.883 183,187.5C 183.671,188.252 184.504,188.586 185.5,188.5C 185.5,188.833 185.5,189.167 185.5,189.5C 185.678,192.216 186.178,194.883 187,197.5C 187.671,198.252 188.504,198.586 189.5,198.5C 189.5,198.833 189.5,199.167 189.5,199.5C 189.837,204.357 191.17,208.857 193.5,213C 193.167,213.333 192.833,213.667 192.5,214C 138.501,214.5 84.501,214.667 30.5,214.5C 30.8333,211.833 31.1667,209.167 31.5,206.5C 34.4312,203.987 35.7645,200.653 35.5,196.5C 36.5,196.5 37.5,196.5 38.5,196.5C 39.907,191.604 40.907,186.604 41.5,181.5C 42.4959,181.586 43.3292,181.252 44,180.5C 44.8215,177.883 45.3215,175.216 45.5,172.5C 45.5,172.167 45.5,171.833 45.5,171.5C 46.4959,171.586 47.3292,171.252 48,170.5C 48.8215,167.883 49.3215,165.216 49.5,162.5C 49.5,162.167 49.5,161.833 49.5,161.5C 53.5881,157.923 55.5881,153.256 55.5,147.5C 55.5,147.167 55.5,146.833 55.5,146.5C 57.0931,145.652 58.2597,144.319 59,142.5C 59.7175,143.451 60.5509,143.617 61.5,143C 60.5342,139.565 60.5342,136.065 61.5,132.5C 62.1499,132.196 62.8165,131.863 63.5,131.5C 63.9828,128.331 65.3161,125.664 67.5,123.5C 69.3291,118.268 70.6625,112.935 71.5,107.5C 74.5592,99.0496 77.8925,90.7162 81.5,82.5C 82.4959,82.5858 83.3292,82.2524 84,81.5C 84.8215,78.8832 85.3215,76.2165 85.5,73.5C 85.5,73.1667 85.5,72.8333 85.5,72.5C 87.0257,71.8953 88.0257,70.7286 88.5,69C 89.7376,69.0773 90.7376,68.9106 91.5,68.5C 90.9781,67.3926 90.6448,66.2259 90.5,65C 92.2152,61.3543 93.2152,57.521 93.5,53.5C 97.1905,49.3784 99.1905,44.3784 99.5,38.5C 102.431,35.9867 103.765,32.6533 103.5,28.5C 106.431,25.9867 107.765,22.6533 107.5,18.5C 108.5,18.5 109.5,18.5 110.5,18.5C 110.338,16.4727 110.505,14.4727 111,12.5C 111.671,11.7476 112.504,11.4142 113.5,11.5 Z M 115.5,72.5 C 115.5,72.8333 115.5,73.1667 115.5,73.5C 116.988,78.4671 118.988,83.1338 121.5,87.5C 122.734,92.883 124.734,97.883 127.5,102.5C 129.129,107.735 131.129,112.735 133.5,117.5C 135.654,124.46 138.321,131.126 141.5,137.5C 141.5,137.833 141.5,138.167 141.5,138.5C 144.323,145.654 147.323,152.654 150.5,159.5C 151.108,162.327 152.108,164.993 153.5,167.5C 154.463,170.744 155.796,173.744 157.5,176.5C 157.878,178.921 158.545,181.254 159.5,183.5C 157.861,181.194 155.861,179.194 153.5,177.5C 153.573,175.973 152.906,174.973 151.5,174.5C 150.2,171.568 148.2,169.234 145.5,167.5C 145.262,165.596 144.262,164.262 142.5,163.5C 137.182,156.186 131.516,149.186 125.5,142.5C 124.396,140.611 123.063,138.945 121.5,137.5C 120.396,135.611 119.063,133.945 117.5,132.5C 115.675,130.197 113.842,127.864 112,125.5C 110.248,127.351 108.748,129.351 107.5,131.5C 104.791,134.208 102.458,137.208 100.5,140.5C 95.1079,145.56 90.4413,151.226 86.5,157.5C 83.4602,160.539 80.7935,163.873 78.5,167.5C 77.5,167.833 76.8333,168.5 76.5,169.5C 74.1223,171.878 72.1223,174.545 70.5,177.5C 68.8333,178.833 67.1667,180.167 65.5,181.5C 66.5,178.167 67.5,174.833 68.5,171.5C 71.3996,166.152 73.7329,160.485 75.5,154.5C 78.0694,149.015 80.4027,143.349 82.5,137.5C 84.871,132.735 86.871,127.735 88.5,122.5C 90.3459,119.46 91.6792,116.127 92.5,112.5C 94.0722,109.682 95.4055,106.682 96.5,103.5C 96.5,103.167 96.5,102.833 96.5,102.5C 100.539,94.0681 104.205,85.4015 107.5,76.5C 107.5,76.1667 107.5,75.8333 107.5,75.5C 108.97,72.5608 110.47,69.5608 112,66.5C 113.082,68.6181 114.249,70.6181 115.5,72.5 Z"/></g>
<g><path style="opacity:1" fill="#8878e9" d="M 88.5,122.5 C 86.871,127.735 84.871,132.735 82.5,137.5C 82.0716,131.379 84.0716,126.379 88.5,122.5 Z"/></g>
<g><path style="opacity:0.98" fill="#8778e5" d="M 133.5,117.5 C 134.931,118.446 136.264,119.612 137.5,121C 137.043,121.414 136.709,121.914 136.5,122.5C 139.159,127.145 140.826,132.145 141.5,137.5C 138.321,131.126 135.654,124.46 133.5,117.5 Z"/></g>
<g><path style="opacity:0.996" fill="#8c80e7" d="M 92.5,112.5 C 91.6792,116.127 90.3459,119.46 88.5,122.5C 88.3041,118.394 89.6375,115.061 92.5,112.5 Z"/></g>
<g><path style="opacity:1" fill="#8579e1" d="M 127.5,102.5 C 130.799,106.795 132.799,111.795 133.5,117.5C 131.129,112.735 129.129,107.735 127.5,102.5 Z"/></g>
<g><path style="opacity:1" fill="#8479e0" d="M 96.5,103.5 C 95.4055,106.682 94.0722,109.682 92.5,112.5C 91.9961,108.519 93.3294,105.519 96.5,103.5 Z"/></g>
<g><path style="opacity:1" fill="#7d6fea" d="M 107.5,76.5 C 104.205,85.4015 100.539,94.0681 96.5,102.5C 97.6799,96.1162 99.1799,89.7829 101,83.5C 101.333,84.1667 101.667,84.8333 102,85.5C 102.544,82.3754 103.377,79.3754 104.5,76.5C 105.5,76.5 106.5,76.5 107.5,76.5 Z"/></g>
<g><path style="opacity:0.976" fill="#857ae6" d="M 115.5,73.5 C 116.15,73.8039 116.817,74.1373 117.5,74.5C 118.968,77.857 120.634,81.0237 122.5,84C 121.663,85.0113 121.33,86.1779 121.5,87.5C 118.988,83.1338 116.988,78.4671 115.5,73.5 Z"/></g>
<g><path style="opacity:0.996" fill="#8c7fea" d="M 115.5,72.5 C 114.249,70.6181 113.082,68.6181 112,66.5C 110.47,69.5608 108.97,72.5608 107.5,75.5C 108.357,72.4509 108.357,69.4509 107.5,66.5C 109.707,65.3652 112.04,64.6985 114.5,64.5C 114.575,67.2062 114.908,69.8728 115.5,72.5 Z"/></g>
<g><path style="opacity:1" fill="#887de2" d="M 107.5,131.5 C 106.306,135.363 103.973,138.363 100.5,140.5C 102.458,137.208 104.791,134.208 107.5,131.5 Z"/></g>
<g><path style="opacity:0.996" fill="#8d82e2" d="M 117.5,132.5 C 119.063,133.945 120.396,135.611 121.5,137.5C 119.003,136.871 117.67,135.204 117.5,132.5 Z"/></g>
<g><path style="opacity:0.992" fill="#7d71de" d="M 117.5,132.5 C 115.214,131.684 113.214,130.35 111.5,128.5C 110.717,130.288 109.384,131.288 107.5,131.5C 108.748,129.351 110.248,127.351 112,125.5C 113.842,127.864 115.675,130.197 117.5,132.5 Z"/></g>
<g><path style="opacity:1" fill="#7b6de8" d="M 61.5,132.5 C 60.5342,136.065 60.5342,139.565 61.5,143C 60.5509,143.617 59.7175,143.451 59,142.5C 58.2597,144.319 57.0931,145.652 55.5,146.5C 56.9884,141.533 58.9884,136.866 61.5,132.5 Z"/></g>
<g><path style="opacity:0.988" fill="#877cdd" d="M 121.5,137.5 C 123.063,138.945 124.396,140.611 125.5,142.5C 123.003,141.871 121.67,140.204 121.5,137.5 Z"/></g>
<g><path style="opacity:0.98" fill="#8579e0" d="M 82.5,137.5 C 80.4027,143.349 78.0694,149.015 75.5,154.5C 76.1534,150.038 77.3201,145.705 79,141.5C 79.7403,139.681 80.9069,138.348 82.5,137.5 Z"/></g>
<g><path style="opacity:1" fill="#776de5" d="M 163.5,135.5 C 165.592,138.088 166.925,141.088 167.5,144.5C 164.531,142.38 163.198,139.38 163.5,135.5 Z"/></g>
<g><path style="opacity:1" fill="#7f72e7" d="M 141.5,138.5 C 142.376,138.369 143.043,138.702 143.5,139.5C 145.2,144.046 147.533,148.213 150.5,152C 149.864,154.394 149.864,156.894 150.5,159.5C 147.323,152.654 144.323,145.654 141.5,138.5 Z"/></g>
<g><path style="opacity:1" fill="#7b6fe5" d="M 167.5,144.5 C 169.871,149.265 171.871,154.265 173.5,159.5C 169.102,155.625 167.102,150.625 167.5,144.5 Z"/></g>
<g><path style="opacity:1" fill="#7c6ee8" d="M 125.5,142.5 C 131.516,149.186 137.182,156.186 142.5,163.5C 140.165,162.587 137.999,161.253 136,159.5C 134.991,157.975 134.491,156.308 134.5,154.5C 133.325,154.719 132.325,154.386 131.5,153.5C 129.477,149.819 127.477,146.153 125.5,142.5 Z"/></g>
<g><path style="opacity:0.996" fill="#7f74e6" d="M 55.5,147.5 C 55.5881,153.256 53.5881,157.923 49.5,161.5C 50.9884,156.533 52.9884,151.866 55.5,147.5 Z"/></g>
<g><path style="opacity:0.996" fill="#8275e5" d="M 75.5,154.5 C 73.7329,160.485 71.3996,166.152 68.5,171.5C 69.8247,165.886 71.158,160.219 72.5,154.5C 73.5,154.5 74.5,154.5 75.5,154.5 Z"/></g>
<g><path style="opacity:1" fill="#7e71df" d="M 86.5,157.5 C 85.316,160.861 83.4827,163.861 81,166.5C 80.3292,167.252 79.4959,167.586 78.5,167.5C 80.7935,163.873 83.4602,160.539 86.5,157.5 Z"/></g>
<g><path style="opacity:0.973" fill="#a298e2" d="M 142.5,163.5 C 144.262,164.262 145.262,165.596 145.5,167.5C 143.738,166.738 142.738,165.404 142.5,163.5 Z"/></g>
<g><path style="opacity:0.988" fill="#756ae5" d="M 49.5,162.5 C 49.3215,165.216 48.8215,167.883 48,170.5C 47.3292,171.252 46.4959,171.586 45.5,171.5C 46.4629,168.256 47.7962,165.256 49.5,162.5 Z"/></g>
<g><path style="opacity:0.996" fill="#8574e7" d="M 153.5,167.5 C 154.5,167.5 155.5,167.5 156.5,167.5C 156.963,170.482 157.296,173.482 157.5,176.5C 155.796,173.744 154.463,170.744 153.5,167.5 Z"/></g>
<g><path style="opacity:1" fill="#8676e2" d="M 76.5,169.5 C 75.5899,173.065 73.5899,175.732 70.5,177.5C 72.1223,174.545 74.1223,171.878 76.5,169.5 Z"/></g>
<g><path style="opacity:0.925" fill="#9991e0" d="M 151.5,174.5 C 152.906,174.973 153.573,175.973 153.5,177.5C 152.094,177.027 151.427,176.027 151.5,174.5 Z"/></g>
<g><path style="opacity:0.957" fill="#8379e6" d="M 68.5,171.5 C 67.5,174.833 66.5,178.167 65.5,181.5C 65.1667,181.5 64.8333,181.5 64.5,181.5C 64.3041,177.394 65.6375,174.061 68.5,171.5 Z"/></g>
<g><path style="opacity:1" fill="#756ae3" d="M 45.5,172.5 C 45.3215,175.216 44.8215,177.883 44,180.5C 43.3292,181.252 42.4959,181.586 41.5,181.5C 42.4629,178.256 43.7962,175.256 45.5,172.5 Z"/></g>
<g><path style="opacity:1" fill="#6e64eb" d="M 175.5,164.5 C 177.871,169.265 179.871,174.265 181.5,179.5C 179.612,180.634 177.946,181.801 176.5,183C 177.664,181.006 178.331,178.839 178.5,176.5C 176.737,172.681 175.737,168.681 175.5,164.5 Z"/></g>
<g><path style="opacity:0.004" fill="#cec9ff" d="M 64.5,182.5 C 64.5,183.167 64.8333,183.5 65.5,183.5C 64.8783,184.627 64.045,185.627 63,186.5C 62.6522,184.86 63.1522,183.527 64.5,182.5 Z"/></g>
<g><path style="opacity:0.988" fill="#7e71e7" d="M 181.5,179.5 C 183.204,182.256 184.537,185.256 185.5,188.5C 184.504,188.586 183.671,188.252 183,187.5C 182.178,184.883 181.678,182.216 181.5,179.5 Z"/></g>
<g><path style="opacity:0.996" fill="#796de6" d="M 41.5,181.5 C 40.907,186.604 39.907,191.604 38.5,196.5C 37.5,196.5 36.5,196.5 35.5,196.5C 37.129,191.265 39.129,186.265 41.5,181.5 Z"/></g>
<g><path style="opacity:1" fill="#8578e3" d="M 185.5,189.5 C 187.204,192.256 188.537,195.256 189.5,198.5C 188.504,198.586 187.671,198.252 187,197.5C 186.178,194.883 185.678,192.216 185.5,189.5 Z"/></g>
<g><path style="opacity:1" fill="#796de7" d="M 35.5,196.5 C 35.7645,200.653 34.4312,203.987 31.5,206.5C 32.3208,202.873 33.6541,199.54 35.5,196.5 Z"/></g>
<g><path style="opacity:1" fill="#6259e9" d="M 189.5,199.5 C 191.679,203.203 193.345,207.203 194.5,211.5C 194.5,212.833 194.5,214.167 194.5,215.5C 139.5,215.5 84.5,215.5 29.5,215.5C 29.5,214.167 29.5,212.833 29.5,211.5C 29.7959,209.597 30.4625,207.93 31.5,206.5C 31.1667,209.167 30.8333,211.833 30.5,214.5C 84.501,214.667 138.501,214.5 192.5,214C 192.833,213.667 193.167,213.333 193.5,213C 191.17,208.857 189.837,204.357 189.5,199.5 Z"/></g>
<g><path style="opacity:0.853" fill="#7a74d4" d="M 29.5,211.5 C 29.5,212.833 29.5,214.167 29.5,215.5C 84.5,215.5 139.5,215.5 194.5,215.5C 194.5,214.167 194.5,212.833 194.5,211.5C 195.339,212.641 196.006,213.974 196.5,215.5C 140.167,216.833 83.8333,216.833 27.5,215.5C 27.9943,213.974 28.661,212.641 29.5,211.5 Z"/></g>
</svg>
