<?xml version="1.0" encoding="UTF-8"?>
<!DOCTYPE svg PUBLIC "-//W3C//DTD SVG 1.1//EN" "http://www.w3.org/Graphics/SVG/1.1/DTD/svg11.dtd">
<svg xmlns="http://www.w3.org/2000/svg" version="1.1" width="500px" height="500px" style="shape-rendering:geometricPrecision; text-rendering:geometricPrecision; image-rendering:optimizeQuality; fill-rule:evenodd; clip-rule:evenodd" xmlns:xlink="http://www.w3.org/1999/xlink">
<g><path style="opacity:1" fill="#fefefe" d="M -0.5,-0.5 C 166.167,-0.5 332.833,-0.5 499.5,-0.5C 499.5,166.167 499.5,332.833 499.5,499.5C 332.833,499.5 166.167,499.5 -0.5,499.5C -0.5,332.833 -0.5,166.167 -0.5,-0.5 Z"/></g>
<g><path style="opacity:1" fill="#a4a4a4" d="M 249.5,43.5 C 248.5,43.5 247.5,43.5 246.5,43.5C 246.5,48.8333 246.5,54.1667 246.5,59.5C 246.5,61.8333 246.5,64.1667 246.5,66.5C 245.5,66.5 244.5,66.5 243.5,66.5C 243.737,67.791 243.404,68.791 242.5,69.5C 242.5,66.1667 242.5,62.8333 242.5,59.5C 243.5,59.5 244.5,59.5 245.5,59.5C 245.287,52.7895 245.62,46.1228 246.5,39.5C 247.5,39.5 248.5,39.5 249.5,39.5C 249.5,40.8333 249.5,42.1667 249.5,43.5 Z"/></g>
<g><path style="opacity:1" fill="#060606" d="M 249.5,43.5 C 249.5,48.8333 249.5,54.1667 249.5,59.5C 248.5,59.5 247.5,59.5 246.5,59.5C 246.5,54.1667 246.5,48.8333 246.5,43.5C 247.5,43.5 248.5,43.5 249.5,43.5 Z"/></g>
<g><path style="opacity:1" fill="#c1c1c1" d="M 249.5,59.5 C 250.833,59.5 252.167,59.5 253.5,59.5C 253.5,66.1667 253.5,72.8333 253.5,79.5C 252.515,75.3656 252.182,71.0323 252.5,66.5C 251.5,66.5 250.5,66.5 249.5,66.5C 249.5,64.1667 249.5,61.8333 249.5,59.5 Z"/></g>
<g><path style="opacity:1" fill="#9e9e9e" d="M 236.5,89.5 C 236.5,92.8333 236.5,96.1667 236.5,99.5C 235.5,99.5 234.5,99.5 233.5,99.5C 233.813,103.042 233.479,106.375 232.5,109.5C 232.5,104.833 232.5,100.167 232.5,95.5C 233.5,95.5 234.5,95.5 235.5,95.5C 235.205,93.2646 235.539,91.2646 236.5,89.5 Z"/></g>
<g><path style="opacity:1" fill="#252525" d="M 246.5,59.5 C 247.5,59.5 248.5,59.5 249.5,59.5C 249.5,61.8333 249.5,64.1667 249.5,66.5C 250.5,66.5 251.5,66.5 252.5,66.5C 252.182,71.0323 252.515,75.3656 253.5,79.5C 254.5,79.5 255.5,79.5 256.5,79.5C 256.5,82.8333 256.5,86.1667 256.5,89.5C 257.5,89.5 258.5,89.5 259.5,89.5C 259.5,92.8333 259.5,96.1667 259.5,99.5C 260.5,99.5 261.5,99.5 262.5,99.5C 262.5,102.833 262.5,106.167 262.5,109.5C 263.833,109.5 265.167,109.5 266.5,109.5C 266.5,111.833 266.5,114.167 266.5,116.5C 267.5,116.5 268.5,116.5 269.5,116.5C 269.5,118.833 269.5,121.167 269.5,123.5C 270.5,123.5 271.5,123.5 272.5,123.5C 272.5,125.5 272.5,127.5 272.5,129.5C 273.833,129.5 275.167,129.5 276.5,129.5C 276.5,131.5 276.5,133.5 276.5,135.5C 277.5,135.5 278.5,135.5 279.5,135.5C 279.5,136.833 279.5,138.167 279.5,139.5C 279.5,141.833 279.5,144.167 279.5,146.5C 281.5,146.5 283.5,146.5 285.5,146.5C 286.404,147.209 286.737,148.209 286.5,149.5C 287.5,149.5 288.5,149.5 289.5,149.5C 289.5,151.5 289.5,153.5 289.5,155.5C 290.5,155.5 291.5,155.5 292.5,155.5C 292.5,156.833 292.5,158.167 292.5,159.5C 293.5,159.5 294.5,159.5 295.5,159.5C 295.5,161.833 295.5,164.167 295.5,166.5C 296.833,166.5 298.167,166.5 299.5,166.5C 299.5,167.5 299.5,168.5 299.5,169.5C 300.833,169.5 302.167,169.5 303.5,169.5C 303.5,170.5 303.5,171.5 303.5,172.5C 304.5,172.5 305.5,172.5 306.5,172.5C 306.5,173.833 306.5,175.167 306.5,176.5C 307.5,176.5 308.5,176.5 309.5,176.5C 309.5,177.5 309.5,178.5 309.5,179.5C 310.5,179.5 311.5,179.5 312.5,179.5C 312.5,180.833 312.5,182.167 312.5,183.5C 313.5,183.5 314.5,183.5 315.5,183.5C 315.5,184.5 315.5,185.5 315.5,186.5C 316.833,186.5 318.167,186.5 319.5,186.5C 319.5,187.5 319.5,188.5 319.5,189.5C 320.5,189.5 321.5,189.5 322.5,189.5C 322.5,190.833 322.5,192.167 322.5,193.5C 323.5,193.5 324.5,193.5 325.5,193.5C 325.5,194.5 325.5,195.5 325.5,196.5C 326.833,196.5 328.167,196.5 329.5,196.5C 329.5,197.5 329.5,198.5 329.5,199.5C 330.5,199.5 331.5,199.5 332.5,199.5C 332.5,200.833 332.5,202.167 332.5,203.5C 334.833,203.5 337.167,203.5 339.5,203.5C 339.5,204.5 339.5,205.5 339.5,206.5C 340.833,206.5 342.167,206.5 343.5,206.5C 343.5,207.5 343.5,208.5 343.5,209.5C 345.5,209.5 347.5,209.5 349.5,209.5C 349.5,210.5 349.5,211.5 349.5,212.5C 350.791,212.263 351.791,212.596 352.5,213.5C 352.5,214.5 352.5,215.5 352.5,216.5C 355.598,216.413 355.932,216.913 353.5,218C 355.345,219.128 357.345,219.628 359.5,219.5C 360.833,219.5 362.167,219.5 363.5,219.5C 363.5,220.5 363.5,221.5 363.5,222.5C 365.5,222.5 367.5,222.5 369.5,222.5C 369.5,223.833 369.5,225.167 369.5,226.5C 371.833,226.5 374.167,226.5 376.5,226.5C 376.5,227.5 376.5,228.5 376.5,229.5C 378.833,229.5 381.167,229.5 383.5,229.5C 383.5,230.5 383.5,231.5 383.5,232.5C 385.5,232.5 387.5,232.5 389.5,232.5C 389.5,233.833 389.5,235.167 389.5,236.5C 392.833,236.5 396.167,236.5 399.5,236.5C 399.5,237.5 399.5,238.5 399.5,239.5C 402.833,239.5 406.167,239.5 409.5,239.5C 409.5,240.5 409.5,241.5 409.5,242.5C 412.833,242.5 416.167,242.5 419.5,242.5C 419.5,243.5 419.5,244.5 419.5,245.5C 422.625,246.479 425.958,246.813 429.5,246.5C 429.5,249.5 429.5,252.5 429.5,255.5C 425.958,255.187 422.625,255.521 419.5,256.5C 419.5,257.5 419.5,258.5 419.5,259.5C 416.167,259.5 412.833,259.5 409.5,259.5C 409.5,260.5 409.5,261.5 409.5,262.5C 406.167,262.5 402.833,262.5 399.5,262.5C 399.5,263.5 399.5,264.5 399.5,265.5C 396.375,266.479 393.042,266.813 389.5,266.5C 389.5,267.5 389.5,268.5 389.5,269.5C 387.167,269.5 384.833,269.5 382.5,269.5C 382.5,270.5 382.5,271.5 382.5,272.5C 380.167,272.5 377.833,272.5 375.5,272.5C 375.5,273.5 375.5,274.5 375.5,275.5C 373.265,275.205 371.265,275.539 369.5,276.5C 369.5,277.5 369.5,278.5 369.5,279.5C 367.5,279.5 365.5,279.5 363.5,279.5C 363.5,280.5 363.5,281.5 363.5,282.5C 362.167,282.5 360.833,282.5 359.5,282.5C 356.735,282.71 354.735,284.043 353.5,286.5C 353.5,287.5 353.5,288.5 353.5,289.5C 352.167,289.5 350.833,289.5 349.5,289.5C 349.5,290.5 349.5,291.5 349.5,292.5C 347.167,292.5 344.833,292.5 342.5,292.5C 342.5,293.5 342.5,294.5 342.5,295.5C 341.209,295.263 340.209,295.596 339.5,296.5C 339.5,297.5 339.5,298.5 339.5,299.5C 338.5,299.5 337.5,299.5 336.5,299.5C 335.167,299.5 333.833,299.5 332.5,299.5C 332.5,300.5 332.5,301.5 332.5,302.5C 331.209,302.263 330.209,302.596 329.5,303.5C 329.5,304.5 329.5,305.5 329.5,306.5C 328.5,306.5 327.5,306.5 326.5,306.5C 326.5,307.5 326.5,308.5 326.5,309.5C 325.167,309.5 323.833,309.5 322.5,309.5C 322.5,310.5 322.5,311.5 322.5,312.5C 321.5,312.5 320.5,312.5 319.5,312.5C 319.5,313.833 319.5,315.167 319.5,316.5C 318.5,316.5 317.5,316.5 316.5,316.5C 316.5,317.5 316.5,318.5 316.5,319.5C 315.167,319.5 313.833,319.5 312.5,319.5C 312.5,320.5 312.5,321.5 312.5,322.5C 311.5,322.5 310.5,322.5 309.5,322.5C 309.5,323.833 309.5,325.167 309.5,326.5C 308.5,326.5 307.5,326.5 306.5,326.5C 306.5,327.5 306.5,328.5 306.5,329.5C 305.167,329.5 303.833,329.5 302.5,329.5C 302.5,330.5 302.5,331.5 302.5,332.5C 301.5,332.5 300.5,332.5 299.5,332.5C 299.5,333.833 299.5,335.167 299.5,336.5C 298.5,336.5 297.5,336.5 296.5,336.5C 296.5,337.5 296.5,338.5 296.5,339.5C 295.596,340.209 295.263,341.209 295.5,342.5C 294.5,342.5 293.5,342.5 292.5,342.5C 292.5,343.5 292.5,344.5 292.5,345.5C 292.5,345.833 292.5,346.167 292.5,346.5C 291.5,346.5 290.5,346.5 289.5,346.5C 289.5,347.5 289.5,348.5 289.5,349.5C 289.5,350.833 289.5,352.167 289.5,353.5C 288.5,353.5 287.5,353.5 286.5,353.5C 286.5,354.5 286.5,355.5 286.5,356.5C 285.5,356.5 284.5,356.5 283.5,356.5C 283.167,358.5 282.833,360.5 282.5,362.5C 281.5,362.5 280.5,362.5 279.5,362.5C 279.5,363.833 279.5,365.167 279.5,366.5C 278.167,366.5 276.833,366.5 275.5,366.5C 275.5,368.5 275.5,370.5 275.5,372.5C 274.5,372.5 273.5,372.5 272.5,372.5C 272.5,374.833 272.5,377.167 272.5,379.5C 271.5,379.5 270.5,379.5 269.5,379.5C 269.5,381.833 269.5,384.167 269.5,386.5C 268.5,386.5 267.5,386.5 266.5,386.5C 266.795,388.735 266.461,390.735 265.5,392.5C 264.5,392.5 263.5,392.5 262.5,392.5C 262.5,395.833 262.5,399.167 262.5,402.5C 261.5,402.5 260.5,402.5 259.5,402.5C 259.5,403.5 259.5,404.5 259.5,405.5C 259.5,407.833 259.5,410.167 259.5,412.5C 258.167,412.5 256.833,412.5 255.5,412.5C 255.5,415.833 255.5,419.167 255.5,422.5C 254.5,422.5 253.5,422.5 252.5,422.5C 252.5,427.167 252.5,431.833 252.5,436.5C 251.5,436.5 250.5,436.5 249.5,436.5C 249.5,438.5 249.5,440.5 249.5,442.5C 249.5,448.167 249.5,453.833 249.5,459.5C 248.5,459.5 247.5,459.5 246.5,459.5C 246.825,451.648 246.492,443.982 245.5,436.5C 243.652,432.146 242.985,427.48 243.5,422.5C 242.167,422.5 240.833,422.5 239.5,422.5C 239.5,419.167 239.5,415.833 239.5,412.5C 238.5,412.5 237.5,412.5 236.5,412.5C 236.5,409.167 236.5,405.833 236.5,402.5C 235.167,402.5 233.833,402.5 232.5,402.5C 232.5,399.5 232.5,396.5 232.5,393.5C 231.5,393.5 230.5,393.5 229.5,393.5C 229.5,392.167 229.5,390.833 229.5,389.5C 229.5,388.167 229.5,386.833 229.5,385.5C 228.5,385.5 227.5,385.5 226.5,385.5C 226.795,383.265 226.461,381.265 225.5,379.5C 224.5,379.5 223.5,379.5 222.5,379.5C 222.5,377.5 222.5,375.5 222.5,373.5C 221.5,373.5 220.5,373.5 219.5,373.5C 219.5,372.167 219.5,370.833 219.5,369.5C 219.5,368.5 219.5,367.5 219.5,366.5C 218.5,366.5 217.5,366.5 216.5,366.5C 216.5,365.167 216.5,363.833 216.5,362.5C 215.5,362.5 214.5,362.5 213.5,362.5C 213.737,361.209 213.404,360.209 212.5,359.5C 212.5,358.5 212.5,357.5 212.5,356.5C 211.5,356.5 210.5,356.5 209.5,356.5C 209.5,355.167 209.5,353.833 209.5,352.5C 208.5,352.5 207.5,352.5 206.5,352.5C 206.5,350.167 206.5,347.833 206.5,345.5C 205.5,345.5 204.5,345.5 203.5,345.5C 203.5,344.5 203.5,343.5 203.5,342.5C 202.167,342.5 200.833,342.5 199.5,342.5C 199.5,341.5 199.5,340.5 199.5,339.5C 199.5,338.5 199.5,337.5 199.5,336.5C 198.5,336.5 197.5,336.5 196.5,336.5C 196.5,335.167 196.5,333.833 196.5,332.5C 195.5,332.5 194.5,332.5 193.5,332.5C 193.737,331.209 193.404,330.209 192.5,329.5C 191.5,329.5 190.5,329.5 189.5,329.5C 189.5,328.5 189.5,327.5 189.5,326.5C 188.209,326.737 187.209,326.404 186.5,325.5C 186.5,324.5 186.5,323.5 186.5,322.5C 185.5,322.5 184.5,322.5 183.5,322.5C 183.737,321.209 183.404,320.209 182.5,319.5C 181.5,319.5 180.5,319.5 179.5,319.5C 179.5,318.5 179.5,317.5 179.5,316.5C 178.209,316.737 177.209,316.404 176.5,315.5C 176.5,314.5 176.5,313.5 176.5,312.5C 175.5,312.5 174.5,312.5 173.5,312.5C 173.737,311.209 173.404,310.209 172.5,309.5C 171.5,309.5 170.5,309.5 169.5,309.5C 169.5,308.5 169.5,307.5 169.5,306.5C 168.209,306.737 167.209,306.404 166.5,305.5C 166.5,304.5 166.5,303.5 166.5,302.5C 165.167,302.5 163.833,302.5 162.5,302.5C 162.5,301.5 162.5,300.5 162.5,299.5C 161.5,299.5 160.5,299.5 159.5,299.5C 158.5,299.5 157.5,299.5 156.5,299.5C 156.5,298.167 156.5,296.833 156.5,295.5C 155.5,295.5 154.5,295.5 153.5,295.5C 153.5,294.5 153.5,293.5 153.5,292.5C 151.167,292.5 148.833,292.5 146.5,292.5C 146.5,291.5 146.5,290.5 146.5,289.5C 145.167,289.5 143.833,289.5 142.5,289.5C 142.5,288.5 142.5,287.5 142.5,286.5C 140.5,286.167 138.5,285.833 136.5,285.5C 136.5,284.5 136.5,283.5 136.5,282.5C 135.167,282.5 133.833,282.5 132.5,282.5C 132.5,281.5 132.5,280.5 132.5,279.5C 130.5,279.5 128.5,279.5 126.5,279.5C 126.5,278.167 126.5,276.833 126.5,275.5C 124.167,275.5 121.833,275.5 119.5,275.5C 119.5,274.5 119.5,273.5 119.5,272.5C 117.5,272.5 115.5,272.5 113.5,272.5C 113.737,271.209 113.404,270.209 112.5,269.5C 110.5,269.5 108.5,269.5 106.5,269.5C 106.5,268.167 106.5,266.833 106.5,265.5C 103.167,265.5 99.8333,265.5 96.5,265.5C 96.5,264.5 96.5,263.5 96.5,262.5C 93.1667,262.5 89.8333,262.5 86.5,262.5C 86.5,261.5 86.5,260.5 86.5,259.5C 83.1667,259.5 79.8333,259.5 76.5,259.5C 76.5,258.167 76.5,256.833 76.5,255.5C 72.1161,255.826 67.7828,255.492 63.5,254.5C 63.2907,253.914 62.9574,253.414 62.5,253C 54.8406,252.5 47.1739,252.334 39.5,252.5C 39.5,251.5 39.5,250.5 39.5,249.5C 45.1667,249.5 50.8333,249.5 56.5,249.5C 58.5,249.5 60.5,249.5 62.5,249.5C 62.5,248.5 62.5,247.5 62.5,246.5C 67.1667,246.5 71.8333,246.5 76.5,246.5C 76.5,245.5 76.5,244.5 76.5,243.5C 79.2869,242.523 82.2869,242.19 85.5,242.5C 85.5,241.5 85.5,240.5 85.5,239.5C 88.1667,239.5 90.8333,239.5 93.5,239.5C 94.5,239.5 95.5,239.5 96.5,239.5C 96.5,238.5 96.5,237.5 96.5,236.5C 99.8333,236.5 103.167,236.5 106.5,236.5C 106.5,235.5 106.5,234.5 106.5,233.5C 108.265,232.539 110.265,232.205 112.5,232.5C 112.5,231.5 112.5,230.5 112.5,229.5C 114.833,229.5 117.167,229.5 119.5,229.5C 119.5,228.5 119.5,227.5 119.5,226.5C 121.833,226.5 124.167,226.5 126.5,226.5C 126.5,225.5 126.5,224.5 126.5,223.5C 128.5,223.5 130.5,223.5 132.5,223.5C 132.5,222.167 132.5,220.833 132.5,219.5C 133.833,219.5 135.167,219.5 136.5,219.5C 138.833,219.5 141.167,219.5 143.5,219.5C 143.5,217.5 143.5,215.5 143.5,213.5C 144.5,213.5 145.5,213.5 146.5,213.5C 146.5,212.167 146.5,210.833 146.5,209.5C 147.5,209.5 148.5,209.5 149.5,209.5C 149.5,208.5 149.5,207.5 149.5,206.5C 150.5,206.5 151.5,206.5 152.5,206.5C 153.833,206.5 155.167,206.5 156.5,206.5C 156.5,205.5 156.5,204.5 156.5,203.5C 157.791,203.737 158.791,203.404 159.5,202.5C 160.5,202.5 161.5,202.5 162.5,202.5C 162.5,201.5 162.5,200.5 162.5,199.5C 163.833,199.5 165.167,199.5 166.5,199.5C 166.5,198.5 166.5,197.5 166.5,196.5C 167.5,196.5 168.5,196.5 169.5,196.5C 169.5,195.167 169.5,193.833 169.5,192.5C 170.5,192.5 171.5,192.5 172.5,192.5C 172.5,191.5 172.5,190.5 172.5,189.5C 173.833,189.5 175.167,189.5 176.5,189.5C 176.5,188.5 176.5,187.5 176.5,186.5C 177.5,186.5 178.5,186.5 179.5,186.5C 179.5,185.167 179.5,183.833 179.5,182.5C 180.5,182.5 181.5,182.5 182.5,182.5C 182.5,181.5 182.5,180.5 182.5,179.5C 183.833,179.5 185.167,179.5 186.5,179.5C 186.5,178.5 186.5,177.5 186.5,176.5C 187.5,176.5 188.5,176.5 189.5,176.5C 189.5,175.167 189.5,173.833 189.5,172.5C 190.5,172.5 191.5,172.5 192.5,172.5C 192.5,171.5 192.5,170.5 192.5,169.5C 193.833,169.5 195.167,169.5 196.5,169.5C 196.5,168.5 196.5,167.5 196.5,166.5C 197.5,166.5 198.5,166.5 199.5,166.5C 199.5,164.167 199.5,161.833 199.5,159.5C 200.5,159.5 201.5,159.5 202.5,159.5C 203.404,158.791 203.737,157.791 203.5,156.5C 204.5,156.5 205.5,156.5 206.5,156.5C 206.5,154.167 206.5,151.833 206.5,149.5C 207.5,149.5 208.5,149.5 209.5,149.5C 209.5,148.167 209.5,146.833 209.5,145.5C 210.5,145.5 211.5,145.5 212.5,145.5C 213.404,144.791 213.737,143.791 213.5,142.5C 214.5,142.5 215.5,142.5 216.5,142.5C 216.5,140.5 216.5,138.5 216.5,136.5C 217.209,135.596 218.209,135.263 219.5,135.5C 219.5,133.5 219.5,131.5 219.5,129.5C 220.5,129.5 221.5,129.5 222.5,129.5C 223.461,127.735 223.795,125.735 223.5,123.5C 224.5,123.5 225.5,123.5 226.5,123.5C 226.5,121.167 226.5,118.833 226.5,116.5C 227.5,116.5 228.5,116.5 229.5,116.5C 229.5,114.167 229.5,111.833 229.5,109.5C 230.5,109.5 231.5,109.5 232.5,109.5C 233.479,106.375 233.813,103.042 233.5,99.5C 234.5,99.5 235.5,99.5 236.5,99.5C 236.5,96.1667 236.5,92.8333 236.5,89.5C 237.5,89.5 238.5,89.5 239.5,89.5C 239.5,86.1667 239.5,82.8333 239.5,79.5C 240.5,79.5 241.5,79.5 242.5,79.5C 242.5,76.1667 242.5,72.8333 242.5,69.5C 243.404,68.791 243.737,67.791 243.5,66.5C 244.5,66.5 245.5,66.5 246.5,66.5C 246.5,64.1667 246.5,61.8333 246.5,59.5 Z"/></g>
<g><path style="opacity:1" fill="#7d7d7d" d="M 226.5,116.5 C 226.5,118.833 226.5,121.167 226.5,123.5C 225.5,123.5 224.5,123.5 223.5,123.5C 223.795,125.735 223.461,127.735 222.5,129.5C 222.5,127.167 222.5,124.833 222.5,122.5C 223.5,122.5 224.5,122.5 225.5,122.5C 225.205,120.265 225.539,118.265 226.5,116.5 Z"/></g>
<g><path style="opacity:1" fill="#808080" d="M 216.5,136.5 C 216.5,138.5 216.5,140.5 216.5,142.5C 215.5,142.5 214.5,142.5 213.5,142.5C 213.737,143.791 213.404,144.791 212.5,145.5C 212.5,143.5 212.5,141.5 212.5,139.5C 213.5,139.5 214.5,139.5 215.5,139.5C 215.263,138.209 215.596,137.209 216.5,136.5 Z"/></g>
<g><path style="opacity:1" fill="#616161" d="M 279.5,139.5 C 280.5,139.5 281.5,139.5 282.5,139.5C 282.5,141.5 282.5,143.5 282.5,145.5C 283.791,145.263 284.791,145.596 285.5,146.5C 283.5,146.5 281.5,146.5 279.5,146.5C 279.5,144.167 279.5,141.833 279.5,139.5 Z"/></g>
<g><path style="opacity:1" fill="#939393" d="M 206.5,149.5 C 206.5,151.833 206.5,154.167 206.5,156.5C 205.5,156.5 204.5,156.5 203.5,156.5C 203.737,157.791 203.404,158.791 202.5,159.5C 202.5,157.167 202.5,154.833 202.5,152.5C 203.5,152.5 204.5,152.5 205.5,152.5C 205.263,151.209 205.596,150.209 206.5,149.5 Z"/></g>
<g><path style="opacity:1" fill="#7a7a7a" d="M 295.5,159.5 C 296.404,160.209 296.737,161.209 296.5,162.5C 297.5,162.5 298.5,162.5 299.5,162.5C 299.5,163.833 299.5,165.167 299.5,166.5C 298.167,166.5 296.833,166.5 295.5,166.5C 295.5,164.167 295.5,161.833 295.5,159.5 Z"/></g>
<g><path style="opacity:1" fill="#7a7a7a" d="M 312.5,179.5 C 313.404,180.209 313.737,181.209 313.5,182.5C 314.5,182.5 315.5,182.5 316.5,182.5C 316.5,183.5 316.5,184.5 316.5,185.5C 317.791,185.263 318.791,185.596 319.5,186.5C 318.167,186.5 316.833,186.5 315.5,186.5C 315.5,185.5 315.5,184.5 315.5,183.5C 314.5,183.5 313.5,183.5 312.5,183.5C 312.5,182.167 312.5,180.833 312.5,179.5 Z"/></g>
<g><path style="opacity:1" fill="#787878" d="M 322.5,189.5 C 323.404,190.209 323.737,191.209 323.5,192.5C 324.5,192.5 325.5,192.5 326.5,192.5C 326.5,193.5 326.5,194.5 326.5,195.5C 327.791,195.263 328.791,195.596 329.5,196.5C 328.167,196.5 326.833,196.5 325.5,196.5C 325.5,195.5 325.5,194.5 325.5,193.5C 324.5,193.5 323.5,193.5 322.5,193.5C 322.5,192.167 322.5,190.833 322.5,189.5 Z"/></g>
<g><path style="opacity:1" fill="#8a8a8a" d="M 162.5,199.5 C 162.5,200.5 162.5,201.5 162.5,202.5C 161.5,202.5 160.5,202.5 159.5,202.5C 159.5,201.5 159.5,200.5 159.5,199.5C 160.5,199.5 161.5,199.5 162.5,199.5 Z"/></g>
<g><path style="opacity:1" fill="#777777" d="M 332.5,199.5 C 333.833,199.5 335.167,199.5 336.5,199.5C 336.5,200.5 336.5,201.5 336.5,202.5C 337.791,202.263 338.791,202.596 339.5,203.5C 337.167,203.5 334.833,203.5 332.5,203.5C 332.5,202.167 332.5,200.833 332.5,199.5 Z"/></g>
<g><path style="opacity:1" fill="#9f9f9f" d="M 159.5,202.5 C 158.791,203.404 157.791,203.737 156.5,203.5C 156.5,204.5 156.5,205.5 156.5,206.5C 155.167,206.5 153.833,206.5 152.5,206.5C 153.209,205.596 154.209,205.263 155.5,205.5C 155.5,204.5 155.5,203.5 155.5,202.5C 156.833,202.5 158.167,202.5 159.5,202.5 Z"/></g>
<g><path style="opacity:1" fill="#515151" d="M 146.5,209.5 C 146.5,210.833 146.5,212.167 146.5,213.5C 145.5,213.5 144.5,213.5 143.5,213.5C 143.5,215.5 143.5,217.5 143.5,219.5C 141.167,219.5 138.833,219.5 136.5,219.5C 136.5,218.5 136.5,217.5 136.5,216.5C 138.5,216.5 140.5,216.5 142.5,216.5C 142.5,215.167 142.5,213.833 142.5,212.5C 143.5,212.5 144.5,212.5 145.5,212.5C 145.263,211.209 145.596,210.209 146.5,209.5 Z"/></g>
<g><path style="opacity:1" fill="#6e6e6e" d="M 352.5,213.5 C 354.346,215.455 356.679,216.455 359.5,216.5C 359.5,217.5 359.5,218.5 359.5,219.5C 357.345,219.628 355.345,219.128 353.5,218C 355.932,216.913 355.598,216.413 352.5,216.5C 352.5,215.5 352.5,214.5 352.5,213.5 Z"/></g>
<g><path style="opacity:1" fill="#939393" d="M 132.5,219.5 C 132.5,220.833 132.5,222.167 132.5,223.5C 130.5,223.5 128.5,223.5 126.5,223.5C 126.5,224.5 126.5,225.5 126.5,226.5C 124.167,226.5 121.833,226.5 119.5,226.5C 121.265,225.539 123.265,225.205 125.5,225.5C 125.5,224.5 125.5,223.5 125.5,222.5C 126.833,222.5 128.167,222.5 129.5,222.5C 129.5,221.5 129.5,220.5 129.5,219.5C 130.5,219.5 131.5,219.5 132.5,219.5 Z"/></g>
<g><path style="opacity:1" fill="#8c8c8c" d="M 106.5,233.5 C 106.5,234.5 106.5,235.5 106.5,236.5C 103.167,236.5 99.8333,236.5 96.5,236.5C 99.963,235.989 103.296,234.989 106.5,233.5 Z"/></g>
<g><path style="opacity:1" fill="#9a9a9a" d="M 96.5,236.5 C 96.5,237.5 96.5,238.5 96.5,239.5C 95.5,239.5 94.5,239.5 93.5,239.5C 93.5,238.5 93.5,237.5 93.5,236.5C 94.5,236.5 95.5,236.5 96.5,236.5 Z"/></g>
<g><path style="opacity:1" fill="#c5c5c5" d="M 419.5,245.5 C 426.167,245.5 432.833,245.5 439.5,245.5C 439.5,246.833 439.5,248.167 439.5,249.5C 437.167,249.5 434.833,249.5 432.5,249.5C 432.5,248.5 432.5,247.5 432.5,246.5C 431.5,246.5 430.5,246.5 429.5,246.5C 425.958,246.813 422.625,246.479 419.5,245.5 Z"/></g>
<g><path style="opacity:1" fill="#b9b9b9" d="M 76.5,243.5 C 76.5,244.5 76.5,245.5 76.5,246.5C 71.8333,246.5 67.1667,246.5 62.5,246.5C 62.5,247.5 62.5,248.5 62.5,249.5C 60.5,249.5 58.5,249.5 56.5,249.5C 56.5,248.167 56.5,246.833 56.5,245.5C 63.4509,246.066 70.1176,245.399 76.5,243.5 Z"/></g>
<g><path style="opacity:1" fill="#4a4a4a" d="M 429.5,246.5 C 430.5,246.5 431.5,246.5 432.5,246.5C 432.5,247.5 432.5,248.5 432.5,249.5C 434.833,249.5 437.167,249.5 439.5,249.5C 439.5,250.5 439.5,251.5 439.5,252.5C 437.167,252.5 434.833,252.5 432.5,252.5C 432.5,253.833 432.5,255.167 432.5,256.5C 428.167,256.5 423.833,256.5 419.5,256.5C 422.625,255.521 425.958,255.187 429.5,255.5C 429.5,252.5 429.5,249.5 429.5,246.5 Z"/></g>
<g><path style="opacity:1" fill="#121212" d="M 439.5,249.5 C 445.167,249.5 450.833,249.5 456.5,249.5C 456.737,250.791 456.404,251.791 455.5,252.5C 450.167,252.5 444.833,252.5 439.5,252.5C 439.5,251.5 439.5,250.5 439.5,249.5 Z"/></g>
<g><path style="opacity:1" fill="#8d8d8d" d="M 39.5,252.5 C 47.1739,252.334 54.8406,252.5 62.5,253C 62.9574,253.414 63.2907,253.914 63.5,254.5C 67.7828,255.492 72.1161,255.826 76.5,255.5C 76.5,256.833 76.5,258.167 76.5,259.5C 75.596,258.791 75.2627,257.791 75.5,256.5C 63.4684,254.898 51.4684,253.564 39.5,252.5 Z"/></g>
<g><path style="opacity:1" fill="#b8b8b8" d="M 439.5,252.5 C 444.833,252.5 450.167,252.5 455.5,252.5C 450.36,253.488 445.026,253.821 439.5,253.5C 439.5,254.5 439.5,255.5 439.5,256.5C 437.167,256.5 434.833,256.5 432.5,256.5C 432.5,255.167 432.5,253.833 432.5,252.5C 434.833,252.5 437.167,252.5 439.5,252.5 Z"/></g>
<g><path style="opacity:1" fill="#9c9c9c" d="M 409.5,262.5 C 406.222,263.39 402.889,264.39 399.5,265.5C 399.5,264.5 399.5,263.5 399.5,262.5C 402.833,262.5 406.167,262.5 409.5,262.5 Z"/></g>
<g><path style="opacity:1" fill="#989898" d="M 86.5,262.5 C 89.8333,262.5 93.1667,262.5 96.5,262.5C 96.5,263.5 96.5,264.5 96.5,265.5C 99.8333,265.5 103.167,265.5 106.5,265.5C 106.5,266.833 106.5,268.167 106.5,269.5C 105.596,268.791 105.263,267.791 105.5,266.5C 101.167,266.5 96.8333,266.5 92.5,266.5C 92.5,265.5 92.5,264.5 92.5,263.5C 90.2646,263.795 88.2646,263.461 86.5,262.5 Z"/></g>
<g><path style="opacity:1" fill="#afafaf" d="M 112.5,269.5 C 113.404,270.209 113.737,271.209 113.5,272.5C 115.5,272.5 117.5,272.5 119.5,272.5C 119.5,273.5 119.5,274.5 119.5,275.5C 121.833,275.5 124.167,275.5 126.5,275.5C 126.5,276.833 126.5,278.167 126.5,279.5C 125.596,278.791 125.263,277.791 125.5,276.5C 122.5,276.5 119.5,276.5 116.5,276.5C 116.5,275.5 116.5,274.5 116.5,273.5C 115.167,273.5 113.833,273.5 112.5,273.5C 112.5,272.167 112.5,270.833 112.5,269.5 Z"/></g>
<g><path style="opacity:1" fill="#7b7b7b" d="M 382.5,272.5 C 380.735,273.461 378.735,273.795 376.5,273.5C 376.5,274.5 376.5,275.5 376.5,276.5C 374.167,276.5 371.833,276.5 369.5,276.5C 371.265,275.539 373.265,275.205 375.5,275.5C 375.5,274.5 375.5,273.5 375.5,272.5C 377.833,272.5 380.167,272.5 382.5,272.5 Z"/></g>
<g><path style="opacity:1" fill="#646464" d="M 359.5,282.5 C 359.5,283.833 359.5,285.167 359.5,286.5C 357.5,286.5 355.5,286.5 353.5,286.5C 354.735,284.043 356.735,282.71 359.5,282.5 Z"/></g>
<g><path style="opacity:1" fill="#808080" d="M 146.5,292.5 C 148.833,292.5 151.167,292.5 153.5,292.5C 153.5,293.5 153.5,294.5 153.5,295.5C 154.5,295.5 155.5,295.5 156.5,295.5C 156.5,296.833 156.5,298.167 156.5,299.5C 155.596,298.791 155.263,297.791 155.5,296.5C 153.5,296.5 151.5,296.5 149.5,296.5C 149.5,295.5 149.5,294.5 149.5,293.5C 148.209,293.737 147.209,293.404 146.5,292.5 Z"/></g>
<g><path style="opacity:1" fill="#999999" d="M 349.5,292.5 C 348.791,293.404 347.791,293.737 346.5,293.5C 346.5,294.5 346.5,295.5 346.5,296.5C 344.167,296.5 341.833,296.5 339.5,296.5C 340.209,295.596 341.209,295.263 342.5,295.5C 342.5,294.5 342.5,293.5 342.5,292.5C 344.833,292.5 347.167,292.5 349.5,292.5 Z"/></g>
<g><path style="opacity:1" fill="#8d8d8d" d="M 159.5,299.5 C 160.5,299.5 161.5,299.5 162.5,299.5C 162.5,300.5 162.5,301.5 162.5,302.5C 163.833,302.5 165.167,302.5 166.5,302.5C 166.5,303.5 166.5,304.5 166.5,305.5C 164.544,303.852 162.211,303.185 159.5,303.5C 159.5,302.167 159.5,300.833 159.5,299.5 Z"/></g>
<g><path style="opacity:1" fill="#9a9a9a" d="M 336.5,299.5 C 336.5,300.833 336.5,302.167 336.5,303.5C 334.167,303.5 331.833,303.5 329.5,303.5C 330.209,302.596 331.209,302.263 332.5,302.5C 332.5,301.5 332.5,300.5 332.5,299.5C 333.833,299.5 335.167,299.5 336.5,299.5 Z"/></g>
<g><path style="opacity:1" fill="#868686" d="M 172.5,309.5 C 173.404,310.209 173.737,311.209 173.5,312.5C 174.5,312.5 175.5,312.5 176.5,312.5C 176.5,313.5 176.5,314.5 176.5,315.5C 175.533,314.194 174.199,313.527 172.5,313.5C 172.5,312.167 172.5,310.833 172.5,309.5 Z"/></g>
<g><path style="opacity:1" fill="#888888" d="M 182.5,319.5 C 183.404,320.209 183.737,321.209 183.5,322.5C 184.5,322.5 185.5,322.5 186.5,322.5C 186.5,323.5 186.5,324.5 186.5,325.5C 185.533,324.194 184.199,323.527 182.5,323.5C 182.5,322.167 182.5,320.833 182.5,319.5 Z"/></g>
<g><path style="opacity:1" fill="#b2b2b2" d="M 192.5,329.5 C 193.404,330.209 193.737,331.209 193.5,332.5C 194.5,332.5 195.5,332.5 196.5,332.5C 196.5,333.833 196.5,335.167 196.5,336.5C 197.5,336.5 198.5,336.5 199.5,336.5C 199.5,337.5 199.5,338.5 199.5,339.5C 198.167,339.5 196.833,339.5 195.5,339.5C 195.5,338.5 195.5,337.5 195.5,336.5C 194.5,336.5 193.5,336.5 192.5,336.5C 192.5,334.167 192.5,331.833 192.5,329.5 Z"/></g>
<g><path style="opacity:1" fill="#747474" d="M 299.5,336.5 C 299.5,337.5 299.5,338.5 299.5,339.5C 298.5,339.5 297.5,339.5 296.5,339.5C 296.5,338.5 296.5,337.5 296.5,336.5C 297.5,336.5 298.5,336.5 299.5,336.5 Z"/></g>
<g><path style="opacity:1" fill="#9f9f9f" d="M 296.5,339.5 C 296.5,340.833 296.5,342.167 296.5,343.5C 294.801,343.527 293.467,344.194 292.5,345.5C 292.5,344.5 292.5,343.5 292.5,342.5C 293.5,342.5 294.5,342.5 295.5,342.5C 295.263,341.209 295.596,340.209 296.5,339.5 Z"/></g>
<g><path style="opacity:1" fill="#868686" d="M 199.5,342.5 C 200.833,342.5 202.167,342.5 203.5,342.5C 203.5,343.5 203.5,344.5 203.5,345.5C 204.5,345.5 205.5,345.5 206.5,345.5C 206.5,347.833 206.5,350.167 206.5,352.5C 205.596,351.791 205.263,350.791 205.5,349.5C 204.5,349.5 203.5,349.5 202.5,349.5C 202.5,347.5 202.5,345.5 202.5,343.5C 201.209,343.737 200.209,343.404 199.5,342.5 Z"/></g>
<g><path style="opacity:1" fill="#9d9d9d" d="M 292.5,346.5 C 292.5,347.5 292.5,348.5 292.5,349.5C 291.5,349.5 290.5,349.5 289.5,349.5C 289.5,348.5 289.5,347.5 289.5,346.5C 290.5,346.5 291.5,346.5 292.5,346.5 Z"/></g>
<g><path style="opacity:1" fill="#b5b5b5" d="M 212.5,359.5 C 213.404,360.209 213.737,361.209 213.5,362.5C 214.5,362.5 215.5,362.5 216.5,362.5C 216.5,363.833 216.5,365.167 216.5,366.5C 217.5,366.5 218.5,366.5 219.5,366.5C 219.5,367.5 219.5,368.5 219.5,369.5C 218.167,369.5 216.833,369.5 215.5,369.5C 215.5,367.5 215.5,365.5 215.5,363.5C 214.5,363.5 213.5,363.5 212.5,363.5C 212.5,362.167 212.5,360.833 212.5,359.5 Z"/></g>
<g><path style="opacity:1" fill="#bababa" d="M 279.5,366.5 C 279.5,367.5 279.5,368.5 279.5,369.5C 278.5,369.5 277.5,369.5 276.5,369.5C 276.5,371.833 276.5,374.167 276.5,376.5C 275.5,376.5 274.5,376.5 273.5,376.5C 273.737,377.791 273.404,378.791 272.5,379.5C 272.5,377.167 272.5,374.833 272.5,372.5C 273.5,372.5 274.5,372.5 275.5,372.5C 275.5,370.5 275.5,368.5 275.5,366.5C 276.833,366.5 278.167,366.5 279.5,366.5 Z"/></g>
<g><path style="opacity:1" fill="#bababa" d="M 225.5,379.5 C 226.461,381.265 226.795,383.265 226.5,385.5C 227.5,385.5 228.5,385.5 229.5,385.5C 229.5,386.833 229.5,388.167 229.5,389.5C 228.5,389.5 227.5,389.5 226.5,389.5C 225.793,386.214 225.46,382.881 225.5,379.5 Z"/></g>
<g><path style="opacity:1" fill="#8e8e8e" d="M 265.5,392.5 C 264.011,395.704 263.011,399.037 262.5,402.5C 262.5,399.167 262.5,395.833 262.5,392.5C 263.5,392.5 264.5,392.5 265.5,392.5 Z"/></g>
<g><path style="opacity:1" fill="#939393" d="M 262.5,402.5 C 262.5,403.5 262.5,404.5 262.5,405.5C 261.5,405.5 260.5,405.5 259.5,405.5C 259.5,404.5 259.5,403.5 259.5,402.5C 260.5,402.5 261.5,402.5 262.5,402.5 Z"/></g>
<g><path style="opacity:1" fill="#989898" d="M 232.5,402.5 C 233.833,402.5 235.167,402.5 236.5,402.5C 236.5,405.833 236.5,409.167 236.5,412.5C 235.539,410.735 235.205,408.735 235.5,406.5C 234.5,406.5 233.5,406.5 232.5,406.5C 232.5,405.167 232.5,403.833 232.5,402.5 Z"/></g>
<g><path style="opacity:1" fill="#6f6f6f" d="M 259.5,412.5 C 258.791,413.404 257.791,413.737 256.5,413.5C 256.81,416.713 256.477,419.713 255.5,422.5C 255.5,419.167 255.5,415.833 255.5,412.5C 256.833,412.5 258.167,412.5 259.5,412.5 Z"/></g>
<g><path style="opacity:1" fill="#757575" d="M 239.5,422.5 C 240.833,422.5 242.167,422.5 243.5,422.5C 242.985,427.48 243.652,432.146 245.5,436.5C 244.5,436.5 243.5,436.5 242.5,436.5C 242.5,432.167 242.5,427.833 242.5,423.5C 241.209,423.737 240.209,423.404 239.5,422.5 Z"/></g>
<g><path style="opacity:1" fill="#bbbbbb" d="M 255.5,422.5 C 253.601,428.882 252.934,435.549 253.5,442.5C 252.167,442.5 250.833,442.5 249.5,442.5C 249.5,440.5 249.5,438.5 249.5,436.5C 250.5,436.5 251.5,436.5 252.5,436.5C 252.5,431.833 252.5,427.167 252.5,422.5C 253.5,422.5 254.5,422.5 255.5,422.5 Z"/></g>
</svg>
