<?xml version="1.0" standalone="no"?>
<!DOCTYPE svg PUBLIC "-//W3C//DTD SVG 20010904//EN"
 "http://www.w3.org/TR/2001/REC-SVG-20010904/DTD/svg10.dtd">
<svg version="1.0" xmlns="http://www.w3.org/2000/svg"
 width="400.000000pt" height="400.000000pt" viewBox="0 0 400.000000 400.000000"
 preserveAspectRatio="xMidYMid meet">

<g transform="translate(0.000000,400.000000) scale(0.100000,-0.100000)"
fill="#000000" stroke="none">
<path d="M0 2000 l0 -2000 2000 0 2000 0 0 2000 0 2000 -2000 0 -2000 0 0
-2000z m1910 428 l0 -213 213 213 212 212 303 0 302 0 0 -300 0 -300 215 0
215 0 0 -340 0 -340 -345 0 -345 0 0 212 0 213 -213 -213 -212 -212 -298 0
-297 0 0 212 0 213 -213 -213 -212 -212 -303 0 -302 0 0 302 0 303 337 337
338 338 302 0 303 0 0 -212z"/>
</g>
</svg>
