<?xml version="1.0" encoding="UTF-8"?>
<svg version="1.1" xmlns="http://www.w3.org/2000/svg" width="240" height="240">
<path d="M0 0 C9.29569169 7.83010554 16.59140824 16.36837678 22.66308594 26.90087891 C23.2625 27.93857422 23.86191406 28.97626953 24.47949219 30.04541016 C36.78869181 52.88256453 38.08100591 77.95158834 31.66699219 102.75244141 C24.50095248 126.30862729 8.97840967 145.61322169 -12.33691406 157.90087891 C-13.37460938 158.50029297 -14.41230469 159.09970703 -15.48144531 159.71728516 C-38.31859968 172.02648478 -63.38762349 173.31879888 -88.18847656 166.90478516 C-111.74466245 159.73874545 -131.04925685 144.21620264 -143.33691406 122.90087891 C-143.93632812 121.86318359 -144.53574219 120.82548828 -145.15332031 119.75634766 C-157.46251993 96.91919329 -158.75483404 71.85016948 -152.34082031 47.04931641 C-145.17478061 23.49313052 -129.6522378 4.18853612 -108.33691406 -8.09912109 C-106.78037109 -8.99824219 -106.78037109 -8.99824219 -105.19238281 -9.91552734 C-71.75855014 -27.93632423 -29.54121517 -23.84601781 0 0 Z " fill="#F5AF96" transform="translate(180.3369140625,45.09912109375)"/>
</svg>
