<?xml version="1.0" encoding="UTF-8"?>
<!DOCTYPE svg PUBLIC "-//W3C//DTD SVG 1.1//EN" "http://www.w3.org/Graphics/SVG/1.1/DTD/svg11.dtd">
<svg xmlns="http://www.w3.org/2000/svg" version="1.1" width="600px" height="600px" style="shape-rendering:geometricPrecision; text-rendering:geometricPrecision; image-rendering:optimizeQuality; fill-rule:evenodd; clip-rule:evenodd" xmlns:xlink="http://www.w3.org/1999/xlink">
<g><path style="opacity:1" fill="#fefefe" d="M -0.5,-0.5 C 199.5,-0.5 399.5,-0.5 599.5,-0.5C 599.5,199.5 599.5,399.5 599.5,599.5C 399.5,599.5 199.5,599.5 -0.5,599.5C -0.5,399.5 -0.5,199.5 -0.5,-0.5 Z"/></g>
<g><path style="opacity:1" fill="#272727" d="M 392.5,260.5 C 395.652,259.959 398.152,260.959 400,263.5C 400.333,283.833 400.667,304.167 401,324.5C 401.833,325.333 402.667,326.167 403.5,327C 409.467,326.299 411.967,328.799 411,334.5C 401.014,339.515 394.347,336.515 391,325.5C 390.333,304.5 390.333,283.5 391,262.5C 391.717,261.956 392.217,261.289 392.5,260.5 Z"/></g>
<g><path style="opacity:1" fill="#262626" d="M 246.5,282.5 C 255.992,280.654 264.159,282.987 271,289.5C 277.496,282.865 285.329,280.698 294.5,283C 301,285.5 305.5,290 308,296.5C 308.667,309.5 308.667,322.5 308,335.5C 304.706,338.311 301.706,337.978 299,334.5C 298.667,322.5 298.333,310.5 298,298.5C 294.064,291.948 288.564,290.114 281.5,293C 279.291,294.873 277.458,297.04 276,299.5C 275.667,311.5 275.333,323.5 275,335.5C 271.661,338.299 268.661,337.966 266,334.5C 265.667,322.5 265.333,310.5 265,298.5C 260.493,292.351 254.66,290.851 247.5,294C 245.951,295.214 244.785,296.714 244,298.5C 243.667,310.5 243.333,322.5 243,334.5C 240.294,337.978 237.294,338.311 234,335.5C 233.333,322.5 233.333,309.5 234,296.5C 236.636,290.369 240.803,285.703 246.5,282.5 Z"/></g>
<g><path style="opacity:1" fill="#292929" d="M 119.5,282.5 C 136.06,281.254 146.227,288.587 150,304.5C 150.667,314.5 150.667,324.5 150,334.5C 146.667,338.5 143.333,338.5 140,334.5C 139.958,322.737 139.292,311.07 138,299.5C 132.313,292.508 125.146,290.675 116.5,294C 113.96,296.205 111.793,298.705 110,301.5C 109.667,312.5 109.333,323.5 109,334.5C 106.339,337.966 103.339,338.299 100,335.5C 99.061,323.096 99.3943,310.762 101,298.5C 104.887,290.481 111.053,285.148 119.5,282.5 Z"/></g>
<g><path style="opacity:1" fill="#252525" d="M 183.5,283.5 C 199.581,281.451 210.748,287.784 217,302.5C 217.667,313.5 217.667,324.5 217,335.5C 211.945,338.949 208.945,337.616 208,331.5C 198.01,338.397 187.51,339.23 176.5,334C 166.137,326.434 161.971,316.267 164,303.5C 165.815,299.204 168.148,295.204 171,291.5C 175.01,288.422 179.177,285.755 183.5,283.5 Z"/></g>
<g><path style="opacity:1" fill="#252525" d="M 341.5,283.5 C 357.581,281.451 368.748,287.784 375,302.5C 375.667,305.833 375.667,309.167 375,312.5C 374.5,313 374,313.5 373.5,314C 364.167,314.667 354.833,314.667 345.5,314C 343.987,311.084 344.32,308.418 346.5,306C 352.825,305.5 359.158,305.334 365.5,305.5C 362.825,296.809 356.825,292.475 347.5,292.5C 337.313,293.854 331.647,299.688 330.5,310C 331.352,320.852 337.185,326.685 348,327.5C 353.328,327.165 358.328,325.831 363,323.5C 367.081,324.119 368.414,326.452 367,330.5C 355.536,339.147 343.703,339.647 331.5,332C 320.039,320.339 318.539,307.506 327,293.5C 331.208,289.103 336.042,285.769 341.5,283.5 Z"/></g>
<g><path style="opacity:1" fill="#272727" d="M 425.5,283.5 C 428.652,282.959 431.152,283.959 433,286.5C 433.667,302.5 433.667,318.5 433,334.5C 430.339,337.966 427.339,338.299 424,335.5C 423.333,318.833 423.333,302.167 424,285.5C 424.717,284.956 425.217,284.289 425.5,283.5 Z"/></g>
<g><path style="opacity:1" fill="#262626" d="M 448.5,285.5 C 450.527,285.338 452.527,285.505 454.5,286C 460.667,292.167 466.833,298.333 473,304.5C 479.167,298.333 485.333,292.167 491.5,286C 497.941,285.701 499.774,288.535 497,294.5C 491.318,300.015 485.818,305.681 480.5,311.5C 486.485,317.986 492.652,324.319 499,330.5C 500.167,336 498,338.167 492.5,337C 486.319,330.652 479.986,324.485 473.5,318.5C 467.014,324.485 460.681,330.652 454.5,337C 448.744,339.569 445.911,337.736 446,331.5C 452.681,324.986 459.181,318.319 465.5,311.5C 459.848,305.348 454.015,299.348 448,293.5C 445.893,290.629 446.059,287.963 448.5,285.5 Z"/></g>
<g><path style="opacity:1" fill="#fafafa" d="M 186.5,292.5 C 206.361,293.568 212.527,303.235 205,321.5C 196.024,330.458 186.691,330.791 177,322.5C 169.662,308.917 172.829,298.917 186.5,292.5 Z"/></g>
</svg>
