<svg xmlns="http://www.w3.org/2000/svg" width="20" height="20" fill="none"><path fill="#889096" d="M3.914 3.524c0-.423.148-.783.444-1.08C4.654 2.148 5.018 2 5.45 2c.415 0 .77.148 1.067.444.296.297.444.66.444 1.092 0 .415-.148.77-.444 1.067a1.47 1.47 0 0 1-1.08.445 1.47 1.47 0 0 1-1.079-.445 1.47 1.47 0 0 1-.444-1.08zm9.143 0c0-.423.148-.783.444-1.08.296-.296.66-.444 1.092-.444.415 0 .77.148 1.067.444.296.297.444.66.444 1.092 0 .415-.148.77-.444 1.067a1.47 1.47 0 0 1-1.08.445 1.47 1.47 0 0 1-1.079-.445 1.47 1.47 0 0 1-.444-1.08zm-4.19 4.19c0-.324.108-.595.326-.814a1.09 1.09 0 0 1 .81-.329c.321 0 .593.11.815.329.223.219.334.49.334.814v3.81c0 .324-.11.595-.327.814a1.096 1.096 0 0 1-.81.329c-.321 0-.593-.11-.816-.329a1.098 1.098 0 0 1-.333-.814v-3.81zm1.142 8c.957 0 1.88-.121 2.765-.365a12.578 12.578 0 0 0 2.537-1 1.26 1.26 0 0 1 .904-.159c.307.064.545.233.715.508.169.275.227.567.174.873-.053.307-.227.545-.524.715-.973.55-2.009.973-3.107 1.27A13.24 13.24 0 0 1 10.01 18c-1.215 0-2.376-.153-3.483-.46a12.994 12.994 0 0 1-3.12-1.318c-.297-.17-.476-.402-.54-.698a1.131 1.131 0 0 1 .159-.857c.17-.275.412-.44.73-.492.317-.053.624.005.92.174.805.445 1.657.783 2.556 1.016.9.233 1.826.35 2.778.35z"/></svg>