<?xml version="1.0" encoding="UTF-8"?>
<!DOCTYPE svg PUBLIC "-//W3C//DTD SVG 1.1//EN" "http://www.w3.org/Graphics/SVG/1.1/DTD/svg11.dtd">
<svg xmlns="http://www.w3.org/2000/svg" version="1.1" width="185px" height="185px" style="shape-rendering:geometricPrecision; text-rendering:geometricPrecision; image-rendering:optimizeQuality; fill-rule:evenodd; clip-rule:evenodd" xmlns:xlink="http://www.w3.org/1999/xlink">
<g><path style="opacity:0.706" fill="#2a6944" d="M 88.5,13.5 C 85.8333,13.5 83.1667,13.5 80.5,13.5C 83.1667,10.8333 85.8333,10.8333 88.5,13.5 Z"/></g>
<g><path style="opacity:0.314" fill="#184a2c" d="M 80.5,13.5 C 79.8333,14.8333 78.8333,15.8333 77.5,16.5C 77.5,14.5 78.5,13.5 80.5,13.5 Z"/></g>
<g><path style="opacity:1" fill="#3ece8e" d="M 80.5,13.5 C 83.1667,13.5 85.8333,13.5 88.5,13.5C 89.5,13.8333 90.1667,14.5 90.5,15.5C 90.1699,33.3412 90.5033,51.0079 91.5,68.5C 91.5,69.1667 91.5,69.8333 91.5,70.5C 91.5,71.5 91.5,72.5 91.5,73.5C 91.5,87.5 91.5,101.5 91.5,115.5C 67.455,115.814 43.455,115.48 19.5,114.5C 18.3443,112.176 17.3443,109.843 16.5,107.5C 15.42,104.257 15.2534,100.924 16,97.5C 17.5998,96.1341 19.4332,95.1341 21.5,94.5C 24.6024,89.2765 26.9357,83.6098 28.5,77.5C 30.5,77.5 31.5,76.5 31.5,74.5C 37.4442,71.5629 41.1109,66.8963 42.5,60.5C 42.8333,59.5 43.5,58.8333 44.5,58.5C 46.6805,56.9094 49.0139,55.5761 51.5,54.5C 53.1871,54.7605 54.6871,55.4272 56,56.5C 54.5185,54.9318 53.8518,52.9318 54,50.5C 54.6517,48.2769 56.1517,47.1102 58.5,47C 57.4464,45.6124 57.2797,44.1124 58,42.5C 61.2108,39.7793 64.2108,36.7793 67,33.5C 67.4828,32.552 67.6495,31.552 67.5,30.5C 68.1098,29.609 68.4431,28.609 68.5,27.5C 70.8333,26.1667 73.1667,24.8333 75.5,23.5C 75.4003,20.8915 76.0669,18.5582 77.5,16.5C 78.8333,15.8333 79.8333,14.8333 80.5,13.5 Z"/></g>
<g><path style="opacity:1" fill="#37946d" d="M 77.5,16.5 C 76.0669,18.5582 75.4003,20.8915 75.5,23.5C 73.1667,24.8333 70.8333,26.1667 68.5,27.5C 71.1518,23.5181 74.1518,19.8514 77.5,16.5 Z"/></g>
<g><path style="opacity:0.569" fill="#1b5038" d="M 68.5,27.5 C 68.4431,28.609 68.1098,29.609 67.5,30.5C 67.1667,30.5 66.8333,30.5 66.5,30.5C 66.427,28.9731 67.0937,27.9731 68.5,27.5 Z"/></g>
<g><path style="opacity:0.537" fill="#1d5d43" d="M 66.5,30.5 C 65.9202,32.7488 64.5869,34.4154 62.5,35.5C 63.0798,33.2512 64.4131,31.5846 66.5,30.5 Z"/></g>
<g><path style="opacity:0.361" fill="#1e4b36" d="M 61.5,36.5 C 61.573,38.0269 60.9063,39.0269 59.5,39.5C 59.427,37.9731 60.0937,36.9731 61.5,36.5 Z"/></g>
<g><path style="opacity:0.991" fill="#3d8061" d="M 90.5,15.5 C 91.2216,15.9175 91.7216,16.5842 92,17.5C 92.7398,33.8512 92.5731,50.1845 91.5,66.5C 91.5,67.1667 91.5,67.8333 91.5,68.5C 90.5033,51.0079 90.1699,33.3412 90.5,15.5 Z"/></g>
<g><path style="opacity:0.576" fill="#275c44" d="M 50.5,50.5 C 50.2624,52.4044 49.2624,53.7377 47.5,54.5C 47.7376,52.5956 48.7376,51.2623 50.5,50.5 Z"/></g>
<g><path style="opacity:1" fill="#43b984" d="M 66.5,30.5 C 66.8333,30.5 67.1667,30.5 67.5,30.5C 67.6495,31.552 67.4828,32.552 67,33.5C 64.2108,36.7793 61.2108,39.7793 58,42.5C 57.2797,44.1124 57.4464,45.6124 58.5,47C 56.1517,47.1102 54.6517,48.2769 54,50.5C 53.8518,52.9318 54.5185,54.9318 56,56.5C 54.6871,55.4272 53.1871,54.7605 51.5,54.5C 49.0139,55.5761 46.6805,56.9094 44.5,58.5C 44.7376,56.5956 45.7376,55.2623 47.5,54.5C 49.2624,53.7377 50.2624,52.4044 50.5,50.5C 53.1518,46.5181 56.1518,42.8514 59.5,39.5C 60.9063,39.0269 61.573,38.0269 61.5,36.5C 61.5,35.8333 61.8333,35.5 62.5,35.5C 64.5869,34.4154 65.9202,32.7488 66.5,30.5 Z"/></g>
<g><path style="opacity:0.371" fill="#18533a" d="M 91.5,66.5 C 92.404,67.209 92.7373,68.209 92.5,69.5C 115.502,69.3334 138.502,69.5 161.5,70C 162.416,70.2784 163.082,70.7784 163.5,71.5C 148.869,70.5497 134.202,70.2164 119.5,70.5C 110.167,70.5 100.833,70.5 91.5,70.5C 91.5,69.8333 91.5,69.1667 91.5,68.5C 91.5,67.8333 91.5,67.1667 91.5,66.5 Z"/></g>
<g><path style="opacity:1" fill="#41a176" d="M 42.5,60.5 C 41.1109,66.8963 37.4442,71.5629 31.5,74.5C 34.6954,69.4313 38.3621,64.7646 42.5,60.5 Z"/></g>
<g><path style="opacity:1" fill="#30aa73" d="M 119.5,70.5 C 134.202,70.2164 148.869,70.5497 163.5,71.5C 166.167,72.1667 167.833,73.8333 168.5,76.5C 164.236,72.8886 159.236,71.5553 153.5,72.5C 149.833,72.5 146.167,72.5 142.5,72.5C 138.38,72.091 135.046,73.4243 132.5,76.5C 132.709,77.086 133.043,77.586 133.5,78C 124.693,85.0121 119.36,94.1788 117.5,105.5C 114.46,109.357 112.627,113.69 112,118.5C 110.667,120.5 109.333,122.5 108,124.5C 105.419,133.657 101.753,142.324 97,150.5C 96.7537,153.89 96.2537,157.223 95.5,160.5C 95.8793,162.213 96.8793,163.213 98.5,163.5C 99.8734,163.343 101.207,163.51 102.5,164C 100.406,165.352 98.0728,165.852 95.5,165.5C 95.5,167.5 95.5,169.5 95.5,171.5C 94.7784,171.082 94.2784,170.416 94,169.5C 93.5001,154.17 93.3334,138.837 93.5,123.5C 94.6431,123.092 95.6431,122.425 96.5,121.5C 100.434,114.963 103.267,107.963 105,100.5C 110.059,94.6387 114.392,88.3054 118,81.5C 119.154,80.2567 120.488,79.2567 122,78.5C 122.265,76.3485 123.265,74.6819 125,73.5C 127.464,72.8392 129.964,72.3392 132.5,72C 129.518,71.502 126.518,71.3354 123.5,71.5C 121.901,71.7678 120.568,71.4345 119.5,70.5 Z"/></g>
<g><path style="opacity:1" fill="#36bb80" d="M 142.5,72.5 C 146.167,72.5 149.833,72.5 153.5,72.5C 151.334,74.9979 150.334,77.9979 150.5,81.5C 147.344,81.5291 145.678,83.1957 145.5,86.5C 143.613,92.7856 140.613,98.9523 136.5,105C 137.059,105.725 137.392,106.558 137.5,107.5C 135.575,109.267 134.242,111.434 133.5,114C 136.294,115.036 136.794,116.536 135,118.5C 133.167,115.667 131.667,115.833 130.5,119C 131.167,119.333 131.833,119.667 132.5,120C 131.576,120.85 131.576,121.85 132.5,123C 132.167,123.5 131.833,124 131.5,124.5C 128.151,123.17 127.818,123.67 130.5,126C 130.201,127.32 130.034,128.82 130,130.5C 128.931,130.36 127.764,130.36 126.5,130.5C 128.086,132.173 128.753,134.173 128.5,136.5C 129.5,136.5 130.5,136.5 131.5,136.5C 131.351,135.448 131.517,134.448 132,133.5C 132.671,134.252 133.504,134.586 134.5,134.5C 133.567,137.37 131.9,139.704 129.5,141.5C 127.805,142.011 126.139,142.678 124.5,143.5C 124.086,147.855 121.753,150.188 117.5,150.5C 117.5,152.5 117.5,154.5 117.5,156.5C 115.621,157.341 113.621,157.675 111.5,157.5C 111.826,160.607 110.659,162.94 108,164.5C 107.506,166.134 107.34,167.801 107.5,169.5C 106.833,170.833 105.833,171.833 104.5,172.5C 101.43,172.632 98.4299,172.299 95.5,171.5C 95.5,169.5 95.5,167.5 95.5,165.5C 98.0728,165.852 100.406,165.352 102.5,164C 101.207,163.51 99.8734,163.343 98.5,163.5C 98.3893,162.883 98.056,162.383 97.5,162C 98.8721,161.598 100.205,161.098 101.5,160.5C 105.518,150.568 110.185,141.068 115.5,132C 114.231,129.861 114.231,127.695 115.5,125.5C 119.649,117.203 123.815,108.87 128,100.5C 126.83,97.4695 127.497,94.8028 130,92.5C 130.333,92.8333 130.667,93.1667 131,93.5C 132.5,89.1664 134,84.8331 135.5,80.5C 137.907,77.7686 140.241,75.1019 142.5,72.5 Z"/></g>
<g><path style="opacity:0.565" fill="#1d5843" d="M 31.5,74.5 C 31.5,76.5 30.5,77.5 28.5,77.5C 29.1667,76.1667 30.1667,75.1667 31.5,74.5 Z"/></g>
<g><path style="opacity:1" fill="#258e5f" d="M 91.5,70.5 C 100.833,70.5 110.167,70.5 119.5,70.5C 120.568,71.4345 121.901,71.7678 123.5,71.5C 121.031,72.3171 118.365,72.8171 115.5,73C 114.176,74.8717 112.676,75.705 111,75.5C 110.667,76.8333 110.333,78.1667 110,79.5C 106.07,83.1343 102.57,87.1343 99.5,91.5C 97.9889,94.5222 96.4889,97.5222 95,100.5C 93.557,91.4056 92.3903,82.4056 91.5,73.5C 91.5,72.5 91.5,71.5 91.5,70.5 Z"/></g>
<g><path style="opacity:1" fill="#289e69" d="M 123.5,71.5 C 126.518,71.3354 129.518,71.502 132.5,72C 129.964,72.3392 127.464,72.8392 125,73.5C 123.265,74.6819 122.265,76.3485 122,78.5C 120.488,79.2567 119.154,80.2567 118,81.5C 114.392,88.3054 110.059,94.6387 105,100.5C 103.267,107.963 100.434,114.963 96.5,121.5C 95.6431,122.425 94.6431,123.092 93.5,123.5C 93.7845,121.585 93.4511,119.919 92.5,118.5C 92.6716,117.508 92.3382,116.842 91.5,116.5C 91.5,116.167 91.5,115.833 91.5,115.5C 91.5,101.5 91.5,87.5 91.5,73.5C 92.3903,82.4056 93.557,91.4056 95,100.5C 96.4889,97.5222 97.9889,94.5222 99.5,91.5C 102.57,87.1343 106.07,83.1343 110,79.5C 110.333,78.1667 110.667,76.8333 111,75.5C 112.676,75.705 114.176,74.8717 115.5,73C 118.365,72.8171 121.031,72.3171 123.5,71.5 Z"/></g>
<g><path style="opacity:1" fill="#31b178" d="M 142.5,72.5 C 140.241,75.1019 137.907,77.7686 135.5,80.5C 134,84.8331 132.5,89.1664 131,93.5C 130.667,93.1667 130.333,92.8333 130,92.5C 127.497,94.8028 126.83,97.4695 128,100.5C 123.815,108.87 119.649,117.203 115.5,125.5C 114.231,127.695 114.231,129.861 115.5,132C 110.185,141.068 105.518,150.568 101.5,160.5C 100.205,161.098 98.8721,161.598 97.5,162C 98.056,162.383 98.3893,162.883 98.5,163.5C 96.8793,163.213 95.8793,162.213 95.5,160.5C 96.2537,157.223 96.7537,153.89 97,150.5C 101.753,142.324 105.419,133.657 108,124.5C 109.333,122.5 110.667,120.5 112,118.5C 112.627,113.69 114.46,109.357 117.5,105.5C 119.36,94.1788 124.693,85.0121 133.5,78C 133.043,77.586 132.709,77.086 132.5,76.5C 135.046,73.4243 138.38,72.091 142.5,72.5 Z"/></g>
<g><path style="opacity:0.608" fill="#23674a" d="M 20.5,88.5 C 19.9202,90.7488 18.5869,92.4154 16.5,93.5C 17.0798,91.2512 18.4131,89.5846 20.5,88.5 Z"/></g>
<g><path style="opacity:1" fill="#44bd88" d="M 28.5,77.5 C 26.9357,83.6098 24.6024,89.2765 21.5,94.5C 19.4332,95.1341 17.5998,96.1341 16,97.5C 15.2534,100.924 15.42,104.257 16.5,107.5C 15.2132,106.129 14.5465,104.295 14.5,102C 14.3623,98.8957 15.0289,96.0624 16.5,93.5C 18.5869,92.4154 19.9202,90.7488 20.5,88.5C 22.9247,84.6477 25.5914,80.981 28.5,77.5 Z"/></g>
<g><path style="opacity:1" fill="#3aa175" d="M 164.5,97.5 C 161.484,101.842 158.151,105.842 154.5,109.5C 155.807,108.198 155.807,106.865 154.5,105.5C 155.325,104.614 156.325,104.281 157.5,104.5C 158.044,102.42 158.878,100.42 160,98.5C 161.356,97.6198 162.856,97.2865 164.5,97.5 Z"/></g>
<g><path style="opacity:1" fill="#35845f" d="M 16.5,93.5 C 15.0289,96.0624 14.3623,98.8957 14.5,102C 14.5465,104.295 15.2132,106.129 16.5,107.5C 17.3443,109.843 18.3443,112.176 19.5,114.5C 13.5386,110.796 11.372,105.463 13,98.5C 13.2233,96.1192 14.39,94.4525 16.5,93.5 Z"/></g>
<g><path style="opacity:1" fill="#458f60" d="M 19.5,114.5 C 43.455,115.48 67.455,115.814 91.5,115.5C 91.5,115.833 91.5,116.167 91.5,116.5C 90.5,116.5 89.5,116.5 88.5,116.5C 67.4005,117.551 46.0672,117.718 24.5,117C 22.3474,116.901 20.6808,116.067 19.5,114.5 Z"/></g>
<g><path style="opacity:1" fill="#3bc586" d="M 153.5,72.5 C 159.236,71.5553 164.236,72.8886 168.5,76.5C 169.79,77.0577 170.623,78.0577 171,79.5C 172.47,86.8792 170.304,92.8792 164.5,97.5C 162.856,97.2865 161.356,97.6198 160,98.5C 158.878,100.42 158.044,102.42 157.5,104.5C 156.325,104.281 155.325,104.614 154.5,105.5C 155.807,106.865 155.807,108.198 154.5,109.5C 152.984,112.533 150.984,115.2 148.5,117.5C 145.671,117.325 144.004,118.658 143.5,121.5C 142.808,120.975 142.308,120.308 142,119.5C 140.872,121.345 140.372,123.345 140.5,125.5C 137.477,125.105 136.477,126.105 137.5,128.5C 136.675,129.386 135.675,129.719 134.5,129.5C 134.5,131.167 134.5,132.833 134.5,134.5C 133.504,134.586 132.671,134.252 132,133.5C 131.517,134.448 131.351,135.448 131.5,136.5C 130.5,136.5 129.5,136.5 128.5,136.5C 128.753,134.173 128.086,132.173 126.5,130.5C 127.764,130.36 128.931,130.36 130,130.5C 130.034,128.82 130.201,127.32 130.5,126C 127.818,123.67 128.151,123.17 131.5,124.5C 131.833,124 132.167,123.5 132.5,123C 131.576,121.85 131.576,120.85 132.5,120C 131.833,119.667 131.167,119.333 130.5,119C 131.667,115.833 133.167,115.667 135,118.5C 136.794,116.536 136.294,115.036 133.5,114C 134.242,111.434 135.575,109.267 137.5,107.5C 137.392,106.558 137.059,105.725 136.5,105C 140.613,98.9523 143.613,92.7856 145.5,86.5C 145.678,83.1957 147.344,81.5291 150.5,81.5C 150.334,77.9979 151.334,74.9979 153.5,72.5 Z"/></g>
<g><path style="opacity:1" fill="#368a65" d="M 92.5,118.5 C 93.4511,119.919 93.7845,121.585 93.5,123.5C 93.3334,138.837 93.5001,154.17 94,169.5C 94.2784,170.416 94.7784,171.082 95.5,171.5C 98.4299,172.299 101.43,172.632 104.5,172.5C 104.389,173.117 104.056,173.617 103.5,174C 99.013,175.378 95.513,174.212 93,170.5C 92.8078,160.756 92.3078,151.09 91.5,141.5C 92.492,134.018 92.8254,126.352 92.5,118.5 Z"/></g>
<g><path style="opacity:1" fill="#3ca275" d="M 148.5,117.5 C 144.505,123.818 139.839,129.484 134.5,134.5C 134.5,132.833 134.5,131.167 134.5,129.5C 135.675,129.719 136.675,129.386 137.5,128.5C 136.477,126.105 137.477,125.105 140.5,125.5C 140.372,123.345 140.872,121.345 142,119.5C 142.308,120.308 142.808,120.975 143.5,121.5C 144.004,118.658 145.671,117.325 148.5,117.5 Z"/></g>
<g><path style="opacity:0.239" fill="#1e4733" d="M 88.5,116.5 C 89.5,116.5 90.5,116.5 91.5,116.5C 92.3382,116.842 92.6716,117.508 92.5,118.5C 92.8254,126.352 92.492,134.018 91.5,141.5C 91.5,133.5 91.5,125.5 91.5,117.5C 90.209,117.737 89.209,117.404 88.5,116.5 Z"/></g>
<g><path style="opacity:1" fill="#3b986d" d="M 129.5,141.5 C 126.219,147.056 122.219,152.056 117.5,156.5C 117.5,154.5 117.5,152.5 117.5,150.5C 121.753,150.188 124.086,147.855 124.5,143.5C 126.139,142.678 127.805,142.011 129.5,141.5 Z"/></g>
<g><path style="opacity:1" fill="#368d66" d="M 117.5,156.5 C 114.406,161.022 111.073,165.356 107.5,169.5C 107.34,167.801 107.506,166.134 108,164.5C 110.659,162.94 111.826,160.607 111.5,157.5C 113.621,157.675 115.621,157.341 117.5,156.5 Z"/></g>
</svg>
