<?xml version="1.0" encoding="UTF-8"?>
<!DOCTYPE svg PUBLIC "-//W3C//DTD SVG 1.1//EN" "http://www.w3.org/Graphics/SVG/1.1/DTD/svg11.dtd">
<svg xmlns="http://www.w3.org/2000/svg" version="1.1" width="224px" height="225px" style="shape-rendering:geometricPrecision; text-rendering:geometricPrecision; image-rendering:optimizeQuality; fill-rule:evenodd; clip-rule:evenodd" xmlns:xlink="http://www.w3.org/1999/xlink">
<g><path style="opacity:1" fill="#146df4" d="M -0.5,-0.5 C 74.1667,-0.5 148.833,-0.5 223.5,-0.5C 223.5,74.5 223.5,149.5 223.5,224.5C 148.833,224.5 74.1667,224.5 -0.5,224.5C -0.5,149.5 -0.5,74.5 -0.5,-0.5 Z"/></g>
<g><path style="opacity:1" fill="#fdfdfe" d="M 84.5,72.5 C 84.3335,82.5056 84.5002,92.5056 85,102.5C 89.8333,92.8333 94.6667,83.1667 99.5,73.5C 109.144,72.5016 118.81,72.1682 128.5,72.5C 128.334,82.5056 128.5,92.5056 129,102.5C 134.167,92.8333 139.333,83.1667 144.5,73.5C 158.488,72.3339 172.488,72.1672 186.5,73C 171.706,101.422 157.039,129.922 142.5,158.5C 128.5,159.833 114.5,159.833 100.5,158.5C 106.918,146.998 112.751,135.331 118,123.5C 99.4561,145.689 75.6227,157.689 46.5,159.5C 46.5,147.5 46.5,135.5 46.5,123.5C 59.1388,122.842 70.1388,118.342 79.5,110C 68.8385,109.5 58.1719,109.333 47.5,109.5C 47.5,97.1667 47.5,84.8333 47.5,72.5C 59.8333,72.5 72.1667,72.5 84.5,72.5 Z"/></g>
<g><path style="opacity:1" fill="#93b4f2" d="M 84.5,72.5 C 72.1667,72.5 59.8333,72.5 47.5,72.5C 47.5,84.8333 47.5,97.1667 47.5,109.5C 46.5046,97.011 46.1713,84.3443 46.5,71.5C 59.3443,71.1713 72.011,71.5046 84.5,72.5 Z"/></g>
</svg>
